<?xml version="1.0" encoding="UTF-8"?>
<svg version="1.1" xmlns="http://www.w3.org/2000/svg" width="468" height="73">
<path d="M0 0 C154.44 0 308.88 0 468 0 C468 24.09 468 48.18 468 73 C313.56 73 159.12 73 0 73 C0 48.91 0 24.82 0 0 Z " fill="#F7F7F7" transform="translate(0,0)"/>
<path d="M0 0 C0.79921875 0.00902344 1.5984375 0.01804687 2.421875 0.02734375 C3.02515625 0.03894531 3.6284375 0.05054688 4.25 0.0625 C4.25 0.7225 4.25 1.3825 4.25 2.0625 C4.91 2.3925 5.57 2.7225 6.25 3.0625 C4.27 4.3825 2.29 5.7025 0.25 7.0625 C0.91 5.4125 1.57 3.7625 2.25 2.0625 C-6.78754706 3.72424252 -14.88466089 6.19412631 -22.75 11.0625 C-23.08 11.7225 -23.41 12.3825 -23.75 13.0625 C-23.09 13.0625 -22.43 13.0625 -21.75 13.0625 C-20.06126121 14.70679829 -18.39694485 16.37634218 -16.75 18.0625 C-15.43824014 19.09063611 -14.1130107 20.10334432 -12.75 21.0625 C-13.245 22.5475 -13.245 22.5475 -13.75 24.0625 C-17.05 21.4225 -20.35 18.7825 -23.75 16.0625 C-23.83384078 20.33837998 -23.59728203 23.82608987 -22.75 28.0625 C-19.45 27.0725 -16.15 26.0825 -12.75 25.0625 C-14.75 29.0625 -14.75 29.0625 -16.625 30.375 C-19.15981359 31.19508675 -20.24493593 30.84533252 -22.75 30.0625 C-26.02275026 30.0625 -28.596632 30.36175156 -31.75 31.0625 C-32.08 29.7425 -32.41 28.4225 -32.75 27.0625 C-33.801875 27.536875 -34.85375 28.01125 -35.9375 28.5 C-41.59564093 30.89905175 -46.63518726 31.45074208 -52.75 31.0625 C-55.25 29.5625 -55.25 29.5625 -56.75 28.0625 C-56.255 26.5775 -56.255 26.5775 -55.75 25.0625 C-55.09 25.7225 -54.43 26.3825 -53.75 27.0625 C-45.98951189 28.00800251 -39.01330975 26.76213725 -31.75 24.0625 C-31.75 25.3825 -31.75 26.7025 -31.75 28.0625 C-30.1 27.7325 -28.45 27.4025 -26.75 27.0625 C-27.245 15.1825 -27.245 15.1825 -27.75 3.0625 C-25.75 6.0625 -25.75 6.0625 -24.75 9.0625 C-23.64140625 8.49660156 -22.5328125 7.93070313 -21.390625 7.34765625 C-19.92719097 6.60655825 -18.46364333 5.86568456 -17 5.125 C-16.27039063 4.75181641 -15.54078125 4.37863281 -14.7890625 3.99414062 C-14.08007812 3.63642578 -13.37109375 3.27871094 -12.640625 2.91015625 C-11.99125977 2.58023682 -11.34189453 2.25031738 -10.67285156 1.91040039 C-7.07538277 0.32406099 -3.9093939 -0.05749109 0 0 Z " fill="#3B3B3B" transform="translate(192.75,15.9375)"/>
<path d="M0 0 C2.0625 0.4375 2.0625 0.4375 4 1 C4.8125 4.25 4.8125 4.25 5 8 C2.9375 10.5 2.9375 10.5 0 12 C-3 11.6875 -3 11.6875 -6 11 C-6.86625 11.185625 -7.7325 11.37125 -8.625 11.5625 C-11 12 -11 12 -13 10.9375 C-13.66 10.628125 -14.32 10.31875 -15 10 C-16.68437744 10.62056011 -18.35008418 11.29289322 -20 12 C-23.3125 12.125 -23.3125 12.125 -26 12 C-26 12.66 -26 13.32 -26 14 C-25.01 14.33 -24.02 14.66 -23 15 C-23.0625 17.25 -23.0625 17.25 -24 20 C-28.46231007 23.34673255 -32.41329032 24.53474818 -37.88671875 25.3125 C-40 25 -40 25 -42.22265625 23.453125 C-44.60080314 20.17075962 -44.60112722 17.76956499 -44.75 13.75 C-44.80671875 12.48671875 -44.8634375 11.2234375 -44.921875 9.921875 C-44.94765625 8.95765625 -44.9734375 7.9934375 -45 7 C-44.67 7 -44.34 7 -44 7 C-44 8.65 -44 10.3 -44 12 C-43.34 12 -42.68 12 -42 12 C-42.04125 13.093125 -42.0825 14.18625 -42.125 15.3125 C-42.32074666 19.08892229 -42.32074666 19.08892229 -40 22 C-34.35667934 22.96349377 -29.92219292 20.45015825 -25 18 C-26.9254644 15.7763932 -26.9254644 15.7763932 -30 15 C-30 13.68 -30 12.36 -30 11 C-27.87562952 10.49733206 -25.75048274 9.9979439 -23.625 9.5 C-22.44164062 9.2215625 -21.25828125 8.943125 -20.0390625 8.65625 C-17 8 -17 8 -15 8 C-15 5.69 -15 3.38 -15 1 C-13.68 1.33 -12.36 1.66 -11 2 C-11.33 2.66 -11.66 3.32 -12 4 C-12.66 3.67 -13.32 3.34 -14 3 C-14 3.99 -14 4.98 -14 6 C-13.01 5.67 -12.02 5.34 -11 5 C-11.33 6.32 -11.66 7.64 -12 9 C-9.69 8.34 -7.38 7.68 -5 7 C-4.505 7.495 -4.505 7.495 -4 8 C-1 8.16666667 -1 8.16666667 2 8 C2.33 7.67 2.66 7.34 3 7 C1.68 6.67 0.36 6.34 -1 6 C-1.042721 4.33388095 -1.04063832 2.66617115 -1 1 C-0.67 0.67 -0.34 0.34 0 0 Z " fill="#252525" transform="translate(391,35)"/>
<path d="M0 0 C2.41066838 2.41066838 2.39772507 3.43451759 2.81640625 6.75390625 C2.94080078 7.69041016 3.06519531 8.62691406 3.19335938 9.59179688 C3.31517578 10.57212891 3.43699219 11.55246094 3.5625 12.5625 C3.81014773 14.50177225 4.0612613 16.44060614 4.31640625 18.37890625 C4.42412354 19.2407251 4.53184082 20.10254395 4.64282227 20.99047852 C4.80071164 22.99152879 4.80071164 22.99152879 6 24 C7.66617115 24.04063832 9.33388095 24.042721 11 24 C10.484375 23.608125 9.96875 23.21625 9.4375 22.8125 C8 21 8 21 8.25 18.375 C9 16 9 16 10 15 C12.33297433 14.95907063 14.66705225 14.95758277 17 15 C17 15.33 17 15.66 17 16 C14.69 16.66 12.38 17.32 10 18 C10.33 18.99 10.66 19.98 11 21 C15.41062136 22.0257259 17.92630576 22.03684712 22 20 C22 20.66 22 21.32 22 22 C19.9237343 23.03513247 17.83868521 24.05266211 15.75 25.0625 C14.58984375 25.63097656 13.4296875 26.19945313 12.234375 26.78515625 C9 28 9 28 6.765625 27.80859375 C5 27 5 27 2 25 C2 25.66 2 26.32 2 27 C-2.75 28.125 -2.75 28.125 -5 27 C-5.969375 27.20625 -6.93875 27.4125 -7.9375 27.625 C-11 28 -11 28 -12.875 26.6875 C-14 25 -14 25 -14 23 C-15.65 23.99 -17.3 24.98 -19 26 C-18.34 24.35 -17.68 22.7 -17 21 C-15.68 21 -14.36 21 -13 21 C-12.34 21.99 -11.68 22.98 -11 24 C-7.93443402 24.73343428 -7.93443402 24.73343428 -5 25 C-4.67 24.34 -4.34 23.68 -4 23 C-2.35 23.33 -0.7 23.66 1 24 C1.14525497 15.94641862 0.71413279 8.02124152 0 0 Z " fill="#3D3D3D" transform="translate(235,19)"/>
<path d="M0 0 C2.0625 0.4375 2.0625 0.4375 4 1 C4.8125 4.1875 4.8125 4.1875 5 8 C2.875 10.75 2.875 10.75 0 13 C-0.763125 13.61875 -1.52625 14.2375 -2.3125 14.875 C-6.20651465 16.50505264 -8.88151854 15.76785247 -13 15 C-13 14.34 -13 13.68 -13 13 C-12.34 13 -11.68 13 -11 13 C-10.67 12.34 -10.34 11.68 -10 11 C-8.68 11.33 -7.36 11.66 -6 12 C-5.67 9.69 -5.34 7.38 -5 5 C-4.34 5 -3.68 5 -3 5 C-2.690625 4.360625 -2.38125 3.72125 -2.0625 3.0625 C-1 1 -1 1 0 0 Z " fill="#D9D9D9" transform="translate(455,35)"/>
<path d="M0 0 C0.8353125 0.2165625 0.8353125 0.2165625 1.6875 0.4375 C6.29336311 1.59483624 6.29336311 1.59483624 11 2 C10.67 2.99 10.34 3.98 10 5 C7.9375 5.6875 7.9375 5.6875 6 6 C6 6.99 6 7.98 6 9 C0.35631385 14.29021938 -5.43389656 16.90169466 -13 18 C-9.8745041 15.35534962 -6.91211733 14.15585285 -3 13 C-3 12.34 -3 11.68 -3 11 C-3.66 10.67 -4.32 10.34 -5 10 C-4.67 8.35 -4.34 6.7 -4 5 C-3.34 5 -2.68 5 -2 5 C-2 4.01 -2 3.02 -2 2 C-1.34 2 -0.68 2 0 2 C0 1.34 0 0.68 0 0 Z " fill="#D9D9D9" transform="translate(192,41)"/>
<path d="M0 0 C0.79921875 0.00902344 1.5984375 0.01804687 2.421875 0.02734375 C3.02515625 0.03894531 3.6284375 0.05054688 4.25 0.0625 C4.25 0.7225 4.25 1.3825 4.25 2.0625 C4.91 2.3925 5.57 2.7225 6.25 3.0625 C4.27 4.3825 2.29 5.7025 0.25 7.0625 C0.91 5.4125 1.57 3.7625 2.25 2.0625 C-6.78754706 3.72424252 -14.88466089 6.19412631 -22.75 11.0625 C-23.08 11.7225 -23.41 12.3825 -23.75 13.0625 C-23.09 13.0625 -22.43 13.0625 -21.75 13.0625 C-20.06126121 14.70679829 -18.39694485 16.37634218 -16.75 18.0625 C-15.43824014 19.09063611 -14.1130107 20.10334432 -12.75 21.0625 C-13.08 22.0525 -13.41 23.0425 -13.75 24.0625 C-15.42243402 22.77830959 -17.08781447 21.48492815 -18.75 20.1875 C-19.678125 19.46820313 -20.60625 18.74890625 -21.5625 18.0078125 C-22.6453125 17.04488281 -22.6453125 17.04488281 -23.75 16.0625 C-23.75 15.4025 -23.75 14.7425 -23.75 14.0625 C-24.41 14.0625 -25.07 14.0625 -25.75 14.0625 C-26.08 14.7225 -26.41 15.3825 -26.75 16.0625 C-27.08 11.7725 -27.41 7.4825 -27.75 3.0625 C-25.75 6.0625 -25.75 6.0625 -24.75 9.0625 C-23.08710938 8.21365234 -23.08710938 8.21365234 -21.390625 7.34765625 C-19.92719097 6.60655825 -18.46364333 5.86568456 -17 5.125 C-16.27039063 4.75181641 -15.54078125 4.37863281 -14.7890625 3.99414062 C-14.08007812 3.63642578 -13.37109375 3.27871094 -12.640625 2.91015625 C-11.99125977 2.58023682 -11.34189453 2.25031738 -10.67285156 1.91040039 C-7.07538277 0.32406099 -3.9093939 -0.05749109 0 0 Z " fill="#2A2A2A" transform="translate(192.75,15.9375)"/>
<path d="M0 0 C3 1 3 1 4.1875 2.75 C5.1534587 5.42496254 5.43386699 7.17986455 5 10 C3.3125 11.875 3.3125 11.875 1 13 C-1.4375 12.625 -1.4375 12.625 -4 12 C-6.72502965 12.37722015 -6.72502965 12.37722015 -9 13 C-9.66 11.68 -10.32 10.36 -11 9 C-11.68964844 9.28875 -12.37929688 9.5775 -13.08984375 9.875 C-19.00491256 12.21181731 -24.59413831 14.32626536 -31 13 C-33.625 11.25 -33.625 11.25 -35 9 C-34.75 6.75 -34.75 6.75 -34 5 C-33.34 6.32 -32.68 7.64 -32 9 C-23.94635715 9.33608711 -17.50216736 9.0517291 -10 6 C-9.67 6.99 -9.34 7.98 -9 9 C-6.525 9.495 -6.525 9.495 -4 10 C-3.67 9.34 -3.34 8.68 -3 8 C-2.505 8.495 -2.505 8.495 -2 9 C-0.33382885 9.04063832 1.33388095 9.042721 3 9 C2.690625 8.443125 2.38125 7.88625 2.0625 7.3125 C0.94238179 4.87459567 0.43962636 2.63775814 0 0 Z " fill="#202020" transform="translate(45,34)"/>
<path d="M0 0 C2.72658423 3.09923092 3.37706709 5.02612194 3.36328125 9.1328125 C3.36263672 10.10347656 3.36199219 11.07414062 3.36132812 12.07421875 C3.34521484 13.08097656 3.32910156 14.08773437 3.3125 15.125 C3.31733398 16.64673828 3.31733398 16.64673828 3.32226562 18.19921875 C3.26709214 25.73290786 3.26709214 25.73290786 1 28 C-1.00349261 27.68834559 -3.00326516 27.35236497 -5 27 C-6.2684375 27.3403125 -6.2684375 27.3403125 -7.5625 27.6875 C-10 28 -10 28 -12.8125 26.0625 C-13.534375 25.381875 -14.25625 24.70125 -15 24 C-17.475 27.465 -17.475 27.465 -20 31 C-21.32 30.67 -22.64 30.34 -24 30 C-25.4783226 27.04335481 -25.06032783 24.25770263 -25 21 C-24.34 21 -23.68 21 -23 21 C-23 23.64 -23 26.28 -23 29 C-22.01 29 -21.02 29 -20 29 C-19.566875 27.576875 -19.566875 27.576875 -19.125 26.125 C-18 23 -18 23 -16 21 C-13.06546739 21.36681658 -12.13562754 21.86437246 -10 24 C-7.21697081 24.20872719 -5.51281795 24.25640898 -3 23 C-3 23.66 -3 24.32 -3 25 C-1.35 25 0.3 25 2 25 C1.855625 23.865625 1.71125 22.73125 1.5625 21.5625 C1.37474666 20.04169792 1.18726097 18.52086278 1 17 C0.90460938 16.25621094 0.80921875 15.51242188 0.7109375 14.74609375 C0.10772324 9.79111949 -0.09075591 4.99157504 0 0 Z " fill="#313131" transform="translate(90,19)"/>
<path d="M0 0 C2 1 2 1 3.125 3.75 C3.92926951 6.73728674 4.34000631 8.93994317 4 12 C3.34 12.66 2.68 13.32 2 14 C-0.26274788 13.64644564 -1.95088852 13.02455574 -4 12 C-4.4125 12.515625 -4.825 13.03125 -5.25 13.5625 C-6.11625 14.2740625 -6.11625 14.2740625 -7 15 C-9.32488881 14.7181953 -10.90892835 14.04553582 -13 13 C-13.33 13.66 -13.66 14.32 -14 15 C-15.32 14.34 -16.64 13.68 -18 13 C-18 11.02 -18 9.04 -18 7 C-17.67 7 -17.34 7 -17 7 C-16.67 8.65 -16.34 10.3 -16 12 C-15.67 12 -15.34 12 -15 12 C-14.01 9.03 -13.02 6.06 -12 3 C-11.67 3 -11.34 3 -11 3 C-10.67 5.64 -10.34 8.28 -10 11 C-8.68 11 -7.36 11 -6 11 C-5.67 7.7 -5.34 4.4 -5 1 C-3 4 -3 4 -2.0625 7.125 C-1.711875 8.07375 -1.36125 9.0225 -1 10 C-0.01 10.33 0.98 10.66 2 11 C1.67 9.9275 1.34 8.855 1 7.75 C0 4 0 4 0 0 Z " fill="#363636" transform="translate(290,32)"/>
<path d="M0 0 C2.0245738 1.93254772 3.42105792 3.63158688 5 6 C4.9375 8.5 4.9375 8.5 4 11 C2.36935236 12.05771739 0.69719127 13.05273046 -1 14 C-1.8971875 15.175625 -1.8971875 15.175625 -2.8125 16.375 C-6.53576393 20.84291672 -11.17181046 23.97314613 -17 24.8125 C-17.99 24.874375 -18.98 24.93625 -20 25 C-15.82119515 21.6913579 -11.21723989 19.2273477 -6.58203125 16.62109375 C-3.91161258 15.25631733 -3.91161258 15.25631733 -3 13 C-4.65 12.67 -6.3 12.34 -8 12 C-7.67 10.35 -7.34 8.7 -7 7 C-6.1646875 7.2165625 -6.1646875 7.2165625 -5.3125 7.4375 C-2.88615805 8.02769128 -0.45093655 8.523429 2 9 C2 8.01 2 7.02 2 6 C1.34 5.34 0.68 4.68 0 4 C0 2.68 0 1.36 0 0 Z " fill="#1E1E1E" transform="translate(411,34)"/>
<path d="M0 0 C5.18317745 5.18317745 4.98178111 16.99162102 6 24 C7.32 24 8.64 24 10 24 C9.43434519 16.32153678 8.8123221 8.65656792 8 1 C8.99 1.33 9.98 1.66 11 2 C11.2546343 5.76956869 11.47432236 9.5403777 11.6875 13.3125 C11.76033203 14.38435547 11.83316406 15.45621094 11.90820312 16.56054688 C11.96298828 17.58857422 12.01777344 18.61660156 12.07421875 19.67578125 C12.13182373 20.62364502 12.18942871 21.57150879 12.2487793 22.5480957 C12 25 12 25 10.62426758 26.84057617 C9 28 9 28 6.9375 27.875 C5 27 5 27 3 24 C2.49755859 21.99462891 2.49755859 21.99462891 2.1484375 19.7265625 C2.01953125 18.9015625 1.890625 18.0765625 1.7578125 17.2265625 C1.63148438 16.36804688 1.50515625 15.50953125 1.375 14.625 C1.17390625 13.34882812 1.17390625 13.34882812 0.96875 12.046875 C0.35127204 8.00176427 -0.18583911 4.10535497 0 0 Z " fill="#393939" transform="translate(320,19)"/>
<path d="M0 0 C3.78965391 3.78965391 3.71679369 8.05843937 4.125 13.125 C4.27021131 14.75289517 4.41850283 16.3805194 4.5703125 18.0078125 C4.62977051 18.72598145 4.68922852 19.44415039 4.75048828 20.18408203 C4.91410803 22.0959646 4.91410803 22.0959646 6 24 C8.52733235 24.65555119 8.52733235 24.65555119 11 25 C11.37125 24.0409375 11.37125 24.0409375 11.75 23.0625 C13 21 13 21 15.0625 20.1875 C15.701875 20.125625 16.34125 20.06375 17 20 C18 21 18 21 18.0625 23.5625 C18.041875 24.366875 18.02125 25.17125 18 26 C16.576875 25.938125 16.576875 25.938125 15.125 25.875 C11.89755144 25.65026182 11.89755144 25.65026182 10 28 C7.5 27.8125 7.5 27.8125 5 27 C3.04297441 24.06446162 2.63427502 22.83240957 2.1484375 19.47265625 C2.01953125 18.59802734 1.890625 17.72339844 1.7578125 16.82226562 C1.63148438 15.91154297 1.50515625 15.00082031 1.375 14.0625 C1.2409375 13.15564453 1.106875 12.24878906 0.96875 11.31445312 C0.41465773 7.47255825 0 3.89457053 0 0 Z " fill="#373737" transform="translate(425,19)"/>
<path d="M0 0 C3.8373228 2.49872182 7.45960866 5.0843836 11 8 C11.66 7.67 12.32 7.34 13 7 C13 7.99 13 8.98 13 10 C9.14243493 12.15305957 6.44870215 13.39253254 2 13 C-0.24828052 8.50343896 -0.16682272 4.92127034 0 0 Z " fill="#E5E5E5" transform="translate(168,31)"/>
<path d="M0 0 C1.32 0 2.64 0 4 0 C6.18038095 3.27057143 6.63246755 4.20519469 6 8 C3.13801271 11.43438474 0.09208886 14.15856001 -4 16 C-6.6875 15.875 -6.6875 15.875 -9 15 C-11.56687367 11.1496895 -10.83288724 9.41430237 -10 5 C-9.67 5 -9.34 5 -9 5 C-8.67 7.31 -8.34 9.62 -8 12 C-2.71201818 11.58525633 0.11690718 10.64775386 4 7 C1.525 6.01 1.525 6.01 -1 5 C-0.67 3.35 -0.34 1.7 0 0 Z " fill="#383838" transform="translate(114,35)"/>
<path d="M0 0 C0.66 0 1.32 0 2 0 C3.98484866 5.68989949 4.37676715 11.10049373 4.65625 17.109375 C4.80184003 20.19303868 4.80184003 20.19303868 7 23 C8.32 23 9.64 23 11 23 C10.855625 22.443125 10.71125 21.88625 10.5625 21.3125 C9.97230872 18.88615805 9.476571 16.45093655 9 14 C11.0245738 15.93254772 12.42105792 17.63158688 14 20 C13.8125 22.5625 13.8125 22.5625 13 25 C10 27 10 27 7.4375 26.9375 C5 26 5 26 3.90087891 23.7590332 C3.03602995 21.11034539 2.52057092 18.67513912 2.1484375 15.91796875 C2.01953125 14.98662109 1.890625 14.05527344 1.7578125 13.09570312 C1.63148438 12.13599609 1.50515625 11.17628906 1.375 10.1875 C1.2409375 9.20845703 1.106875 8.22941406 0.96875 7.22070312 C0.64010038 4.81451838 0.31737913 2.40769281 0 0 Z " fill="#323232" transform="translate(297,20)"/>
<path d="M0 0 C0.99 0.66 1.98 1.32 3 2 C3.66 2.33 4.32 2.66 5 3 C4.67 6.3 4.34 9.6 4 13 C2.34385343 13.38218767 0.67542976 13.71395102 -1 14 C-2.58272601 12.41727399 -2.34735747 10.61965997 -2.5625 8.4375 C-2.64628906 7.61121094 -2.73007812 6.78492188 -2.81640625 5.93359375 C-2.87699219 5.29550781 -2.93757813 4.65742187 -3 4 C-2.34 4 -1.68 4 -1 4 C-0.67 2.68 -0.34 1.36 0 0 Z " fill="#E4E4E4" transform="translate(281,30)"/>
<path d="M0 0 C2.0625 0.4375 2.0625 0.4375 4 1 C4.8125 4.25 4.8125 4.25 5 8 C3 10.5 3 10.5 0 12 C-4.14835447 11.8544437 -7.43281349 11.1403119 -11 9 C-9.02 8.34 -7.04 7.68 -5 7 C-4.67 7.33 -4.34 7.66 -4 8 C-1 8.16666667 -1 8.16666667 2 8 C2.33 7.67 2.66 7.34 3 7 C1.68 6.67 0.36 6.34 -1 6 C-1.042721 4.33388095 -1.04063832 2.66617115 -1 1 C-0.67 0.67 -0.34 0.34 0 0 Z " fill="#3B3B3B" transform="translate(391,35)"/>
<path d="M0 0 C1.134375 0.020625 2.26875 0.04125 3.4375 0.0625 C3.4375 0.3925 3.4375 0.7225 3.4375 1.0625 C1.1275 1.7225 -1.1825 2.3825 -3.5625 3.0625 C-3.2325 4.0525 -2.9025 5.0425 -2.5625 6.0625 C1.84812136 7.0882259 4.36380576 7.09934712 8.4375 5.0625 C8.4375 5.7225 8.4375 6.3825 8.4375 7.0625 C6.3612343 8.09763247 4.27618521 9.11516211 2.1875 10.125 C1.02734375 10.69347656 -0.1328125 11.26195312 -1.328125 11.84765625 C-4.46894333 13.02735975 -5.55603048 13.36480734 -8.5625 12.0625 C-8.8925 10.7425 -9.2225 9.4225 -9.5625 8.0625 C-7.2525 8.3925 -4.9425 8.7225 -2.5625 9.0625 C-3.078125 8.670625 -3.59375 8.27875 -4.125 7.875 C-5.5625 6.0625 -5.5625 6.0625 -5.3125 3.4375 C-4.13833415 -0.28069186 -4.1698646 0.07315552 0 0 Z " fill="#292929" transform="translate(248.5625,33.9375)"/>
<path d="M0 0 C1.485 0.99 1.485 0.99 3 2 C10.23890555 2.73910747 17.01276425 1.86326287 24 0 C24 0.66 24 1.32 24 2 C17.15224434 5.08820353 11.55629316 6.47976465 4 6 C1.5 4.6875 1.5 4.6875 0 3 C0 2.01 0 1.02 0 0 Z " fill="#363636" transform="translate(136,41)"/>
<path d="M0 0 C2 2 2 2 2 6 C1.34 6 0.68 6 0 6 C-0.33 7.32 -0.66 8.64 -1 10 C-2.65 10 -4.3 10 -6 10 C-6 7.69 -6 5.38 -6 3 C-4.02 2.01 -2.04 1.02 0 0 Z " fill="#B4B4B4" transform="translate(366,55)"/>
<path d="M0 0 C0.66 0.33 1.32 0.66 2 1 C1.67 1.78375 1.34 2.5675 1 3.375 C-0.11866511 5.84332497 -0.11866511 5.84332497 0 8 C-0.66 8 -1.32 8 -2 8 C-2.33 6.68 -2.66 5.36 -3 4 C-3.33 5.65 -3.66 7.3 -4 9 C-4.66 9 -5.32 9 -6 9 C-6 9.66 -6 10.32 -6 11 C-5.01 11.66 -4.02 12.32 -3 13 C-4.65 13 -6.3 13 -8 13 C-8 10.69 -8 8.38 -8 6 C-8.99 5.67 -9.98 5.34 -11 5 C-9.21289414 4.13633178 -7.4201535 3.28431406 -5.625 2.4375 C-4.62726563 1.96183594 -3.62953125 1.48617187 -2.6015625 0.99609375 C-1.74304688 0.66738281 -0.88453125 0.33867188 0 0 Z " fill="#DADADA" transform="translate(255,41)"/>
<path d="M0 0 C0.33 0 0.66 0 1 0 C1.33 2.64 1.66 5.28 2 8 C3.65 8.33 5.3 8.66 7 9 C7 9.66 7 10.32 7 11 C4.6875 11.625 4.6875 11.625 2 12 C1.01 11.34 0.02 10.68 -1 10 C-1.33 10.66 -1.66 11.32 -2 12 C-3.32 11.34 -4.64 10.68 -6 10 C-6 8.02 -6 6.04 -6 4 C-5.67 4 -5.34 4 -5 4 C-4.67 5.65 -4.34 7.3 -4 9 C-3.67 9 -3.34 9 -3 9 C-2.01 6.03 -1.02 3.06 0 0 Z " fill="#464646" transform="translate(278,35)"/>
<path d="M0 0 C-4.23255814 5.74418605 -4.23255814 5.74418605 -8 7 C-10.75 7.125 -10.75 7.125 -13 7 C-12.01 6.67 -11.02 6.34 -10 6 C-10 4.02 -10 2.04 -10 0 C-6.42355152 -1.2380014 -3.66305234 -0.74926071 0 0 Z " fill="#E0E0E0" transform="translate(119,41)"/>
<path d="M0 0 C2.64 0 5.28 0 8 0 C3.2949309 6.1843143 -2.00156547 11.63293289 -10 12.8125 C-10.99 12.874375 -11.98 12.93625 -13 13 C-8.82119515 9.6913579 -4.21723989 7.2273477 0.41796875 4.62109375 C3.08838742 3.25631733 3.08838742 3.25631733 4 1 C2.68 0.67 1.36 0.34 0 0 Z " fill="#333333" transform="translate(404,46)"/>
<path d="M0 0 C0.33 0 0.66 0 1 0 C1 1.65 1 3.3 1 5 C1.66 5 2.32 5 3 5 C2.95875 6.093125 2.9175 7.18625 2.875 8.3125 C2.67925334 12.08892229 2.67925334 12.08892229 5 15 C7.43693311 15.36416047 7.43693311 15.36416047 10.125 15.1875 C11.49011719 15.14689453 11.49011719 15.14689453 12.8828125 15.10546875 C13.58148438 15.07066406 14.28015625 15.03585938 15 15 C14.67 15.66 14.34 16.32 14 17 C12.07421875 17.5546875 12.07421875 17.5546875 9.6875 17.875 C8.90761719 17.99617188 8.12773437 18.11734375 7.32421875 18.2421875 C5 18 5 18 2.75390625 16.4609375 C0.40984695 13.17194561 0.39839258 10.75659955 0.25 6.75 C0.19328125 5.48671875 0.1365625 4.2234375 0.078125 2.921875 C0.05234375 1.95765625 0.0265625 0.9934375 0 0 Z " fill="#151515" transform="translate(346,42)"/>
<path d="M0 0 C0.556875 0.144375 1.11375 0.28875 1.6875 0.4375 C6.29336311 1.59483624 6.29336311 1.59483624 11 2 C10 5 10 5 8 6 C5.3276379 6.13415472 2.67749512 6.04318541 0 6 C-1.125 2.25 -1.125 2.25 0 0 Z " fill="#292929" transform="translate(192,41)"/>
<path d="M0 0 C1.32 0.33 2.64 0.66 4 1 C3.67 1.66 3.34 2.32 3 3 C2.34 2.67 1.68 2.34 1 2 C1 2.99 1 3.98 1 5 C1.99 4.67 2.98 4.34 4 4 C4 5.32 4 6.64 4 8 C5.32 8.66 6.64 9.32 8 10 C6.25 10.625 6.25 10.625 4 11 C3.360625 10.649375 2.72125 10.29875 2.0625 9.9375 C-0.05939758 8.68208079 -0.05939758 8.68208079 -2.5625 9.9375 C-3.366875 10.288125 -4.17125 10.63875 -5 11 C-5.99 10.67 -6.98 10.34 -8 10 C-2.25 7 -2.25 7 0 7 C0 4.69 0 2.38 0 0 Z " fill="#1D1D1D" transform="translate(376,36)"/>
<path d="M0 0 C3 1 3 1 4.1875 2.75 C5.1534587 5.42496254 5.43386699 7.17986455 5 10 C3.5625 11.9375 3.5625 11.9375 1 13 C-2.09350555 12.63793739 -5.01805017 11.88566459 -8 11 C-7.360625 10.87625 -6.72125 10.7525 -6.0625 10.625 C-5.381875 10.41875 -4.70125 10.2125 -4 10 C-3.67 9.34 -3.34 8.68 -3 8 C-2.67 8.33 -2.34 8.66 -2 9 C-0.33382885 9.04063832 1.33388095 9.042721 3 9 C2.5359375 8.1646875 2.5359375 8.1646875 2.0625 7.3125 C0.94238179 4.87459567 0.43962636 2.63775814 0 0 Z " fill="#363636" transform="translate(45,34)"/>
<path d="M0 0 C0 0.99 0 1.98 0 3 C-2.88914212 5.79693545 -6.24467422 7.92587307 -10.3125 8.09765625 C-12.5 7.8125 -12.5 7.8125 -16 7 C-16 6.34 -16 5.68 -16 5 C-15.34 5 -14.68 5 -14 5 C-13.67 4.34 -13.34 3.68 -13 3 C-12.67 3.33 -12.34 3.66 -12 4 C-7.21243804 3.631726 -3.94561264 2.74997245 0 0 Z " fill="#353535" transform="translate(458,43)"/>
<path d="M0 0 C0.66 0 1.32 0 2 0 C2.66 1.32 3.32 2.64 4 4 C3.34 4 2.68 4 2 4 C1.67 5.32 1.34 6.64 1 8 C-1 7 -1 7 -2 5 C-2.99 6.485 -2.99 6.485 -4 8 C-5.65 7.67 -7.3 7.34 -9 7 C-8.67 6.01 -8.34 5.02 -8 4 C-8 4.66 -8 5.32 -8 6 C-4.79968558 5.18168052 -4.79968558 5.18168052 -2.4375 2.4375 C-1.633125 1.633125 -0.82875 0.82875 0 0 Z " fill="#999999" transform="translate(219,42)"/>
<path d="M0 0 C0 3 0 3 -1.43359375 4.53515625 C-6.45189011 8.36001761 -10.74577994 10.16031305 -17 11 C-13.77446181 8.45393354 -10.37640066 6.41523546 -6.8125 4.375 C-3.19826368 2.4751087 -3.19826368 2.4751087 0 0 Z " fill="#333333" transform="translate(196,48)"/>
<path d="M0 0 C0.66 0.99 1.32 1.98 2 3 C4.05925139 3.72382467 4.05925139 3.72382467 6 4 C5 7 5 7 1.9375 8.6875 C0.968125 9.120625 -0.00125 9.55375 -1 10 C-1.33 7.69 -1.66 5.38 -2 3 C-1.34 3 -0.68 3 0 3 C0 2.01 0 1.02 0 0 Z " fill="#DADADA" transform="translate(402,43)"/>
<path d="M0 0 C0.79921875 0.00902344 1.5984375 0.01804687 2.421875 0.02734375 C3.02515625 0.03894531 3.6284375 0.05054688 4.25 0.0625 C4.25 0.7225 4.25 1.3825 4.25 2.0625 C4.91 2.3925 5.57 2.7225 6.25 3.0625 C4.27 4.3825 2.29 5.7025 0.25 7.0625 C0.91 5.4125 1.57 3.7625 2.25 2.0625 C-1.05 2.7225 -4.35 3.3825 -7.75 4.0625 C-8.08 3.0725 -8.41 2.0825 -8.75 1.0625 C-5.75519083 0.1901588 -3.11424089 -0.04579766 0 0 Z " fill="#3D3D3D" transform="translate(192.75,15.9375)"/>
<path d="M0 0 C0.66 0 1.32 0 2 0 C2 2.64 2 5.28 2 8 C2.99 8 3.98 8 5 8 C5.66 6.02 6.32 4.04 7 2 C7.99 2 8.98 2 10 2 C8.35 4.64 6.7 7.28 5 10 C3.68 9.67 2.36 9.34 1 9 C-0.4783226 6.04335481 -0.06032783 3.25770263 0 0 Z " fill="#616161" transform="translate(65,40)"/>
<path d="M0 0 C1.32 0 2.64 0 4 0 C5.04115841 1.30144802 6.03886134 2.63838689 7 4 C9.08334635 5.2516467 9.08334635 5.2516467 11 6 C8.6875 6.6875 8.6875 6.6875 6 7 C4.1875 5.6875 4.1875 5.6875 3 4 C3 3.34 3 2.68 3 2 C0.525 3.485 0.525 3.485 -2 5 C-1.34 3.35 -0.68 1.7 0 0 Z " fill="#222222" transform="translate(218,40)"/>
<path d="M0 0 C2.0625 0.4375 2.0625 0.4375 4 1 C4.33 3.31 4.66 5.62 5 8 C4.34 7.34 3.68 6.68 3 6 C0.42938689 5.35232207 0.42938689 5.35232207 -2 5 C-1.125 1.125 -1.125 1.125 0 0 Z " fill="#2E2E2E" transform="translate(455,35)"/>
<path d="M0 0 C2.0245738 1.93254772 3.42105792 3.63158688 5 6 C4.625 8.6875 4.625 8.6875 4 11 C3.01 11.33 2.02 11.66 1 12 C0.01 11.34 -0.98 10.68 -2 10 C-0.68 9.67 0.64 9.34 2 9 C1.855625 8.443125 1.71125 7.88625 1.5625 7.3125 C0.97230872 4.88615805 0.476571 2.45093655 0 0 Z " fill="#434343" transform="translate(306,34)"/>
<path d="M0 0 C0.55171875 0.48082031 1.1034375 0.96164063 1.671875 1.45703125 C4.36143493 3.23954161 6.05821418 3.47751409 9.25 3.6875 C10.14203125 3.75324219 11.0340625 3.81898437 11.953125 3.88671875 C12.62859375 3.92410156 13.3040625 3.96148437 14 4 C12 6 12 6 8.125 6.3125 C5.30579149 6.24073833 4.05383115 6.02826135 1.5 4.6875 C0 3 0 3 0 0 Z " fill="#121212" transform="translate(136,41)"/>
<path d="M0 0 C2.0245738 1.93254772 3.42105792 3.63158688 5 6 C4.625 8.6875 4.625 8.6875 4 11 C3.01 11.33 2.02 11.66 1 12 C0.01 11.34 -0.98 10.68 -2 10 C-0.35 9.34 1.3 8.68 3 8 C2.505 7.4225 2.01 6.845 1.5 6.25 C0 4 0 4 0 0 Z " fill="#3B3B3B" transform="translate(411,34)"/>
<path d="M0 0 C0 0.99 0 1.98 0 3 C-2.25 4.75 -2.25 4.75 -5 6 C-7.3125 5.6875 -7.3125 5.6875 -9 5 C-9 4.01 -9 3.02 -9 2 C-7.88625 1.855625 -6.7725 1.71125 -5.625 1.5625 C-2.17857953 1.21627965 -2.17857953 1.21627965 0 0 Z " fill="#292929" transform="translate(179,41)"/>
<path d="M0 0 C3.23945545 4.31927394 3.35373864 5.15201511 3.1875 10.25 C3.16042969 11.32765625 3.13335937 12.4053125 3.10546875 13.515625 C3.07066406 14.33546875 3.03585938 15.1553125 3 16 C2.34 16 1.68 16 1 16 C0.67 10.72 0.34 5.44 0 0 Z " fill="#444444" transform="translate(90,19)"/>
<path d="M0 0 C0.33 0 0.66 0 1 0 C1.0825 1.11375 1.165 2.2275 1.25 3.375 C1.57873787 7.05753944 1.57873787 7.05753944 4.0625 8.4375 C4.701875 8.623125 5.34125 8.80875 6 9 C6 9.66 6 10.32 6 11 C3.625 10.6875 3.625 10.6875 1 10 C-1.56687367 6.1496895 -0.83288724 4.41430237 0 0 Z " fill="#5B5B5B" transform="translate(104,40)"/>
<path d="M0 0 C2.31 0.66 4.62 1.32 7 2 C7 2.66 7 3.32 7 4 C2.48281619 5.36884358 -0.58774263 4.47075246 -5 3 C-5 2.67 -5 2.34 -5 2 C-3.35 2 -1.7 2 0 2 C0 1.34 0 0.68 0 0 Z " fill="#343434" transform="translate(230,42)"/>
<path d="M0 0 C1.65 0 3.3 0 5 0 C5 3 5 3 3.5 4.6875 C3.005 5.120625 2.51 5.55375 2 6 C1.01 5.67 0.02 5.34 -1 5 C-0.34 4.67 0.32 4.34 1 4 C0.34 3.67 -0.32 3.34 -1 3 C-0.67 2.01 -0.34 1.02 0 0 Z " fill="#464646" transform="translate(401,29)"/>
<path d="M0 0 C1.98 0.495 1.98 0.495 4 1 C4 1.99 4 2.98 4 4 C3.01 4.495 3.01 4.495 2 5 C2.33 5.66 2.66 6.32 3 7 C1.68 7.33 0.36 7.66 -1 8 C-0.67 5.36 -0.34 2.72 0 0 Z " fill="#7E7E7E" transform="translate(212,26)"/>
<path d="M0 0 C0.66 0.33 1.32 0.66 2 1 C1.34 2.32 0.68 3.64 0 5 C0.66 5.33 1.32 5.66 2 6 C1.67 6.99 1.34 7.98 1 9 C-0.32 8.34 -1.64 7.68 -3 7 C-2.25 2.25 -2.25 2.25 0 0 Z " fill="#4B4B4B" transform="translate(267,38)"/>
<path d="M0 0 C1.98 0.495 1.98 0.495 4 1 C4 2.32 4 3.64 4 5 C2.35 5 0.7 5 -1 5 C-0.67 3.35 -0.34 1.7 0 0 Z " fill="#272727" transform="translate(391,35)"/>
<path d="M0 0 C1.32 0.66 2.64 1.32 4 2 C3.34 3.98 2.68 5.96 2 8 C1.34 7.67 0.68 7.34 0 7 C0 5.68 0 4.36 0 3 C-0.66 2.67 -1.32 2.34 -2 2 C-1.34 2 -0.68 2 0 2 C0 1.34 0 0.68 0 0 Z " fill="#B8B8B8" transform="translate(237,44)"/>
<path d="M0 0 C0 0.99 0 1.98 0 3 C0.31421071 5.00309329 0.6451046 7.00371336 1 9 C-0.32 8.67 -1.64 8.34 -3 8 C-3.36923077 3.44615385 -3.36923077 3.44615385 -1.5 1.1875 C-1.005 0.795625 -0.51 0.40375 0 0 Z " fill="#484848" transform="translate(131,38)"/>
<path d="M0 0 C0 0.66 0 1.32 0 2 C-0.66 2 -1.32 2 -2 2 C-2.33 3.65 -2.66 5.3 -3 7 C-4.37562854 5.71034824 -5.70766393 4.37310707 -7 3 C-7 2.34 -7 1.68 -7 1 C-2.25 0 -2.25 0 0 0 Z " fill="#6B6B6B" transform="translate(161,26)"/>
<path d="M0 0 C1.32 0.66 2.64 1.32 4 2 C4 2.99 4 3.98 4 5 C3.01 5 2.02 5 1 5 C0.67 5.66 0.34 6.32 0 7 C-1.125 2.25 -1.125 2.25 0 0 Z " fill="#CECECE" transform="translate(322,17)"/>
<path d="M0 0 C0.33 0 0.66 0 1 0 C1 1.65 1 3.3 1 5 C1.66 5 2.32 5 3 5 C3 7.64 3 10.28 3 13 C2.01 13.495 2.01 13.495 1 14 C0.67 9.38 0.34 4.76 0 0 Z " fill="#4B4B4B" transform="translate(346,42)"/>
<path d="M0 0 C0.309375 0.639375 0.61875 1.27875 0.9375 1.9375 C4.09768575 5.09768575 7.68333908 4.81900793 12 5 C12 5.33 12 5.66 12 6 C8.7 6.33 5.4 6.66 2 7 C0 4 0 4 0 0 Z " fill="#3E3E3E" transform="translate(10,39)"/>
<path d="M0 0 C3.25543229 0.34879632 4.01873107 1.02133261 6.25 3.5625 C6.8275 4.366875 7.405 5.17125 8 6 C4 6 4 6 1.75 4.125 C0 2 0 2 0 0 Z " fill="#1D1D1D" transform="translate(74,40)"/>
<path d="M0 0 C1.65 0 3.3 0 5 0 C5 1.66666667 5 3.33333333 5 5 C2.03 4.505 2.03 4.505 -1 4 C-0.67 2.68 -0.34 1.36 0 0 Z " fill="#6C6C6C" transform="translate(179,26)"/>
<path d="M0 0 C0.66 0 1.32 0 2 0 C2.33 1.32 2.66 2.64 3 4 C0.03 6.475 0.03 6.475 -3 9 C-3.66 8.67 -4.32 8.34 -5 8 C-4.0409375 7.13375 -4.0409375 7.13375 -3.0625 6.25 C-1.01776132 4.01937599 -0.41794801 2.92563609 0 0 Z " fill="#7D7D7D" transform="translate(25,16)"/>
<path d="M0 0 C0.66 0.33 1.32 0.66 2 1 C1.34 1.66 0.68 2.32 0 3 C-0.6425235 5.06874034 -0.6425235 5.06874034 -1 7 C-1.66 7 -2.32 7 -3 7 C-3 5.68 -3 4.36 -3 3 C-3.66 2.67 -4.32 2.34 -5 2 C-2.625 0.9375 -2.625 0.9375 0 0 Z " fill="#C1C1C1" transform="translate(32,43)"/>
<path d="M0 0 C2 2 2 2 2.125 4.625 C2.08375 5.40875 2.0425 6.1925 2 7 C1.01 7.495 1.01 7.495 0 8 C-0.12375 7.360625 -0.2475 6.72125 -0.375 6.0625 C-0.684375 5.0415625 -0.684375 5.0415625 -1 4 C-1.66 3.67 -2.32 3.34 -3 3 C-2.34 3 -1.68 3 -1 3 C-0.67 2.01 -0.34 1.02 0 0 Z " fill="#B9B9B9" transform="translate(286,43)"/>
<path d="M0 0 C0.99 0.33 1.98 0.66 3 1 C3 1.99 3 2.98 3 4 C2.01 4.495 2.01 4.495 1 5 C1.33 5.66 1.66 6.32 2 7 C0.68 7 -0.64 7 -2 7 C-1.34 4.69 -0.68 2.38 0 0 Z " fill="#606060" transform="translate(274,27)"/>
<path d="M0 0 C1.4540625 0.0309375 1.4540625 0.0309375 2.9375 0.0625 C2.2775 1.3825 1.6175 2.7025 0.9375 4.0625 C-0.0525 4.0625 -1.0425 4.0625 -2.0625 4.0625 C-1.7325 3.7325 -1.4025 3.4025 -1.0625 3.0625 C-2.0525 2.4025 -3.0425 1.7425 -4.0625 1.0625 C-3.0625 0.0625 -3.0625 0.0625 0 0 Z " fill="#2C2C2C" transform="translate(231.0625,25.9375)"/>
<path d="M0 0 C0.66 1.32 1.32 2.64 2 4 C1.34 4 0.68 4 0 4 C0 4.66 0 5.32 0 6 C0.99 6.66 1.98 7.32 3 8 C1.35 8 -0.3 8 -2 8 C-1.125 1.125 -1.125 1.125 0 0 Z " fill="#6C6C6C" transform="translate(249,46)"/>
<path d="M0 0 C0.99 0.66 1.98 1.32 3 2 C3 3.32 3 4.64 3 6 C1.68 6 0.36 6 -1 6 C-1.33 5.01 -1.66 4.02 -2 3 C-1.34 3 -0.68 3 0 3 C0 2.01 0 1.02 0 0 Z " fill="#C0C0C0" transform="translate(428,17)"/>
<path d="M0 0 C0.66 0.33 1.32 0.66 2 1 C2 2.32 2 3.64 2 5 C1.34 5 0.68 5 0 5 C-0.33 5.99 -0.66 6.98 -1 8 C-1.66 7.67 -2.32 7.34 -3 7 C-2.01 4.69 -1.02 2.38 0 0 Z " fill="#787878" transform="translate(151,14)"/>
<path d="M0 0 C1.65 0 3.3 0 5 0 C5 0.66 5 1.32 5 2 C5.66 2.33 6.32 2.66 7 3 C5.02 4.32 3.04 5.64 1 7 C1.66 5.02 2.32 3.04 3 1 C2.01 0.67 1.02 0.34 0 0 Z " fill="#555555" transform="translate(192,16)"/>
<path d="M0 0 C0.33 0 0.66 0 1 0 C1.125 5.75 1.125 5.75 0 8 C-0.66 8 -1.32 8 -2 8 C-2 7.34 -2 6.68 -2 6 C-2.66 5.67 -3.32 5.34 -4 5 C-3.01 5 -2.02 5 -1 5 C-0.67 3.35 -0.34 1.7 0 0 Z " fill="#B0B0B0" transform="translate(444,40)"/>
<path d="M0 0 C0.66 0.33 1.32 0.66 2 1 C1.67 1.78375 1.34 2.5675 1 3.375 C-0.11866511 5.84332497 -0.11866511 5.84332497 0 8 C-0.66 8 -1.32 8 -2 8 C-2 6.35 -2 4.7 -2 3 C-2.66 2.67 -3.32 2.34 -4 2 C-2.125 0.9375 -2.125 0.9375 0 0 Z " fill="#CACACA" transform="translate(255,41)"/>
<path d="M0 0 C0.99 0.33 1.98 0.66 3 1 C3.125 4.375 3.125 4.375 3 8 C2.34 8.66 1.68 9.32 1 10 C0.67 6.7 0.34 3.4 0 0 Z " fill="#4A4A4A" transform="translate(328,20)"/>
<path d="M0 0 C0.66 0 1.32 0 2 0 C2.33 1.32 2.66 2.64 3 4 C1.35 4.66 -0.3 5.32 -2 6 C-1.125 1.125 -1.125 1.125 0 0 Z " fill="#545454" transform="translate(53,10)"/>
</svg>
