<?xml version="1.0" standalone="no"?>
<!DOCTYPE svg PUBLIC "-//W3C//DTD SVG 20010904//EN"
 "http://www.w3.org/TR/2001/REC-SVG-20010904/DTD/svg10.dtd">
<svg version="1.0" xmlns="http://www.w3.org/2000/svg"
 width="281.000000pt" height="212.000000pt" viewBox="0 0 281.000000 212.000000"
 preserveAspectRatio="xMidYMid meet">

<g transform="translate(0.000000,212.000000) scale(0.100000,-0.100000)"
fill="#000000" stroke="none">
<path d="M1160 2067 c-129 -56 -219 -131 -250 -207 -7 -19 -15 -37 -16 -39 -2
-2 -47 33 -101 78 -69 58 -99 77 -101 66 -2 -8 -5 -15 -7 -15 -2 0 -42 19 -90
42 -63 30 -89 38 -94 29 -6 -9 -19 -9 -52 -2 -71 17 -128 14 -147 -7 -10 -10
-37 -27 -62 -37 -25 -11 -54 -25 -65 -32 -18 -12 -16 -13 15 -7 l35 7 -55 -58
c-60 -63 -62 -64 56 6 45 27 52 20 18 -21 l-27 -32 51 27 c45 23 56 26 83 16
18 -6 49 -11 70 -11 22 0 39 -4 39 -10 0 -5 25 -17 55 -25 30 -9 55 -20 55
-25 0 -5 3 -15 6 -24 4 -11 -4 -16 -33 -21 -21 -3 -49 -9 -63 -12 -23 -5 -23
-6 -6 -12 16 -6 4 -16 -62 -51 -46 -25 -90 -53 -100 -64 -10 -11 -11 -16 -3
-11 33 19 1 -23 -47 -62 -38 -31 -47 -43 -34 -45 12 -2 0 -16 -40 -46 -63 -46
-72 -58 -33 -40 47 21 39 -2 -21 -63 l-59 -60 65 36 c36 20 71 41 78 47 21 18
25 2 6 -26 -28 -43 -10 -40 43 8 34 31 53 42 60 35 7 -7 26 6 60 40 28 28 59
51 70 51 10 0 34 16 53 35 35 36 55 44 62 24 3 -8 20 -6 58 5 94 28 93 23 -15
-86 -83 -84 -103 -114 -68 -101 19 7 16 1 -57 -115 -24 -38 -30 -56 -22 -61 9
-5 6 -26 -13 -81 -29 -87 -29 -84 -10 -76 20 7 19 -3 -5 -66 -27 -71 -25 -77
11 -42 l31 29 -8 -30 c-4 -16 -15 -54 -26 -84 -21 -63 -21 -61 -9 -61 5 0 14
12 20 28 6 15 25 49 41 76 l28 50 9 -34 9 -34 23 62 c12 34 26 60 31 57 5 -3
14 21 20 52 19 97 21 102 35 97 8 -3 23 21 42 68 20 49 35 73 46 73 9 0 37 34
67 85 79 132 82 133 74 20 -11 -165 27 -410 96 -622 44 -134 131 -319 219
-462 33 -55 58 -103 55 -108 -10 -16 -109 -61 -204 -94 -52 -18 -93 -33 -90
-34 10 -3 1165 -18 1168 -15 1 1 -28 14 -65 28 -37 14 -85 33 -106 41 l-37 16
49 73 c141 210 241 505 241 716 0 97 12 106 50 37 18 -31 38 -59 45 -64 8 -4
23 -27 35 -52 11 -25 27 -56 35 -70 8 -14 15 -37 15 -52 0 -16 4 -28 9 -28 5
0 15 -16 21 -34 7 -21 16 -33 24 -30 7 3 20 -11 29 -32 22 -46 32 -39 18 13
-14 50 -14 58 3 44 11 -9 13 1 9 61 -7 135 -9 147 -37 189 -20 30 -25 44 -16
49 8 5 -8 29 -49 72 -34 36 -61 68 -61 71 0 3 15 1 33 -5 17 -6 43 -11 57 -12
27 -1 60 -21 124 -77 22 -20 48 -39 56 -42 8 -4 25 -14 38 -23 20 -15 22 -15
22 0 0 14 5 14 43 -5 l42 -21 -27 29 c-34 35 -35 46 -5 38 19 -6 18 -3 -8 19
-16 14 -34 25 -38 26 -4 0 -7 6 -5 13 7 28 -90 131 -140 149 -19 7 -31 17 -28
25 3 8 -7 16 -27 21 -47 12 -39 31 23 52 67 24 119 25 167 5 36 -15 36 -15 18
5 -26 29 0 26 42 -6 38 -29 42 -24 13 14 -12 15 -17 28 -11 32 6 3 -6 14 -27
25 -20 10 -44 25 -53 32 -9 7 -48 15 -88 16 -57 3 -84 -1 -129 -19 -32 -14
-59 -19 -62 -14 -3 5 -38 -15 -78 -45 l-72 -54 -14 33 c-7 18 -33 49 -58 69
-51 42 -172 101 -176 87 -2 -6 -36 -10 -76 -10 -49 0 -79 -5 -94 -16 -33 -23
-67 -10 -100 39 -17 23 -39 51 -51 61 -14 13 -18 22 -11 26 15 9 -72 86 -133
117 -45 22 -47 26 -31 37 17 13 17 14 -2 19 -51 16 -160 27 -269 27 -110 1
-118 2 -100 16 11 8 19 21 17 29 -2 9 19 17 70 25 88 15 93 17 76 38 -12 14
-7 15 47 8 32 -4 69 -9 82 -12 17 -5 23 -2 23 9 0 17 21 12 114 -28 34 -15 38
-15 33 -1 -9 24 8 20 85 -19 l70 -36 -27 36 c-15 19 -25 35 -22 35 3 0 43 -14
88 -30 45 -17 84 -29 86 -26 3 2 -27 23 -66 46 -89 53 -98 65 -43 57 23 -3 42
-4 42 -2 0 2 -24 14 -53 28 -29 13 -65 35 -78 49 -23 22 -49 32 -157 54 -16 3
-22 10 -18 19 4 13 -14 15 -115 15 -104 0 -120 2 -115 15 8 21 2 19 -84 -18z
m143 -543 c46 -24 47 -24 47 -4 0 30 11 25 65 -30 27 -27 56 -50 65 -50 8 0
28 -20 43 -45 16 -25 40 -54 53 -64 l25 -19 -23 -22 -23 -22 30 6 c27 6 32 2
52 -31 22 -37 22 -38 23 -10 0 38 15 34 50 -15 37 -51 37 -61 0 -88 -17 -12
-30 -30 -30 -42 0 -11 -13 -36 -30 -54 -16 -19 -27 -40 -24 -48 3 -8 -4 -34
-17 -58 l-21 -43 26 24 c31 29 31 28 10 -33 -22 -64 -12 -68 22 -10 27 45 29
47 35 24 6 -24 6 -24 24 13 10 20 24 37 30 37 6 0 18 12 26 26 19 36 124 115
142 108 8 -3 31 2 52 10 50 21 50 21 14 -23 -17 -22 -28 -45 -24 -51 4 -6 -6
-30 -22 -53 -41 -59 -48 -72 -35 -63 17 10 15 1 -8 -43 -10 -21 -17 -41 -13
-44 3 -4 -2 -25 -12 -49 -10 -28 -12 -39 -4 -30 19 18 29 15 29 -8 0 -23 18
-27 26 -6 3 8 12 12 20 9 8 -3 17 5 24 21 5 15 16 29 24 32 8 3 20 21 26 40 7
19 17 33 23 31 6 -2 21 18 34 45 12 26 27 48 32 48 6 0 25 24 42 53 l31 52 -7
-94 c-15 -233 -81 -428 -218 -646 -91 -144 -102 -154 -196 -181 l-82 -24 -67
34 c-37 18 -90 41 -118 50 -66 21 -96 54 -194 211 -145 231 -235 442 -279 651
-32 157 -52 419 -34 438 4 4 24 -25 43 -66 26 -54 40 -72 53 -70 10 2 21 -6
26 -20 45 -109 52 -122 60 -109 11 17 20 1 45 -76 16 -48 36 -71 36 -41 0 24
18 -7 36 -62 l18 -55 8 34 c11 40 19 34 46 -39 l21 -55 1 75 1 75 29 -35 c16
-19 30 -32 30 -29 0 4 -11 36 -25 73 -24 64 -23 79 4 54 17 -16 2 14 -40 80
-33 52 -35 59 -14 64 11 2 2 22 -35 73 -27 39 -49 74 -50 78 0 5 10 5 22 1 21
-6 22 -5 8 12 -8 10 -29 36 -47 57 -57 64 -39 70 60 21z m664 -230 c17 -8 38
-14 46 -14 26 0 47 -12 47 -26 0 -17 14 -15 -122 -23 -111 -7 -119 -9 -138
-34 -12 -15 -25 -27 -30 -27 -11 0 -46 108 -37 116 3 3 20 -4 38 -17 28 -20
31 -20 21 -3 -8 14 -7 23 4 35 12 14 28 16 77 12 34 -3 76 -11 94 -19z"/>
<path d="M1834 596 c6 -71 5 -86 -7 -86 -8 0 -17 9 -20 20 -7 27 -36 25 -46
-2 -11 -28 -6 -38 20 -38 10 0 19 -4 19 -8 0 -19 -48 -52 -76 -53 l-29 0 25
-10 c38 -15 70 -2 85 35 15 36 42 53 59 36 14 -14 36 -12 36 4 0 7 -10 20 -22
28 -18 12 -22 25 -24 84 -2 43 -7 70 -15 73 -9 3 -10 -17 -5 -83z"/>
<path d="M1924 603 c3 -39 11 -82 16 -95 8 -17 9 -2 5 56 -4 44 -11 87 -16 95
-7 11 -9 -6 -5 -56z"/>
<path d="M1749 608 c-3 -7 -6 -48 -3 -48 2 0 15 5 29 12 31 14 33 28 3 21 -19
-4 -20 -3 -8 6 13 9 13 11 -2 11 -10 0 -19 -1 -19 -2z"/>
<path d="M1707 553 c-5 -7 -5 -17 -2 -23 3 -5 1 -10 -4 -10 -6 0 -11 7 -11 15
0 21 -13 19 -28 -5 -13 -21 -42 -28 -42 -10 0 7 -7 7 -21 0 -26 -14 -49 -6
-49 17 -1 17 -1 17 -11 1 -13 -22 -29 -23 -29 -2 0 12 -5 11 -20 -7 -19 -23
-21 -23 -34 -6 -22 28 -28 20 -21 -27 6 -39 4 -46 -15 -56 -11 -6 -31 -10 -43
-8 -17 2 -23 11 -27 43 -4 30 -7 35 -13 22 -27 -68 11 -111 75 -84 27 11 38
23 43 46 4 17 12 31 18 32 7 0 62 2 124 3 62 1 115 5 118 8 4 3 5 19 3 35 -2
18 -6 24 -11 16z"/>
</g>
</svg>
