<?xml version="1.0" encoding="UTF-8"?>
<svg version="1.1" xmlns="http://www.w3.org/2000/svg" width="460" height="85">
<path d="M0 0 C151.8 0 303.6 0 460 0 C460 28.05 460 56.1 460 85 C308.2 85 156.4 85 0 85 C0 56.95 0 28.9 0 0 Z " fill="#F9F9F9" transform="translate(0,0)"/>
<path d="M0 0 C2.76890402 1.29792376 3.61647491 2.17044981 5 4.9375 C5.59125525 8.06939662 5.70596647 10.81901819 5 13.9375 C2.85119456 16.73028995 0.14496277 18.36501862 -3 19.9375 C-10.46666667 20.29305556 -10.46666667 20.29305556 -14 17.9375 C-16.78855122 18.33321756 -16.78855122 18.33321756 -19 19.9375 C-17.37191406 20.10185547 -17.37191406 20.10185547 -15.7109375 20.26953125 C-14.26555848 20.42908608 -12.82024949 20.58927611 -11.375 20.75 C-10.66214844 20.82025391 -9.94929688 20.89050781 -9.21484375 20.96289062 C-4.58086137 21.49431062 -1.10852159 22.57218394 3 24.9375 C3.07127804 29.21418213 3.09436179 32.80240287 2 36.9375 C4.52380361 35.54683271 7.04397319 34.15016777 9.5625 32.75 C10.26697266 32.36263672 10.97144531 31.97527344 11.69726562 31.57617188 C20.46504559 27.22532179 20.46504559 27.22532179 26 19.9375 C24.329375 19.999375 24.329375 19.999375 22.625 20.0625 C19 19.9375 19 19.9375 17 17.9375 C17.45454545 12.48295455 17.45454545 12.48295455 20 9.9375 C22.52557477 10.18191046 23.7852602 10.76110659 25.75 12.375 C27 13.9375 27 13.9375 27 15.9375 C33.48847457 14.76957458 36.15852574 12.20017902 40 6.9375 C42.4375 7.3125 42.4375 7.3125 45 7.9375 C46.36952673 10.67655345 46.12621361 12.90837332 46 15.9375 C45.67 16.5975 45.34 17.2575 45 17.9375 C44.0925 17.7725 43.185 17.6075 42.25 17.4375 C38.88912497 16.83612854 38.88912497 16.83612854 35 16.9375 C34.505 17.4325 34.01 17.9275 33.5 18.4375 C33.005 18.9325 32.51 19.4275 32 19.9375 C30.68 19.9375 29.36 19.9375 28 19.9375 C27.835 20.783125 27.67 21.62875 27.5 22.5 C25.38992917 27.33557899 22.14213575 29.79036127 18 32.9375 C17.37867188 33.41574219 16.75734375 33.89398438 16.1171875 34.38671875 C11.26274525 37.76857915 6.44269452 38.91698459 0.7109375 40.1875 C-2.58869719 41.10036724 -4.59067537 42.52817537 -7 44.9375 C-11.01063966 47.61125977 -14.285018 47.75785715 -19 46.9375 C-22.35681632 44.36632154 -24.41795535 41.82960985 -26 37.9375 C-26.23046875 35.28125 -26.23046875 35.28125 -26.1875 32.4375 C-26.18105469 31.4990625 -26.17460937 30.560625 -26.16796875 29.59375 C-26 26.9375 -26 26.9375 -25.3984375 24.703125 C-25.26695312 24.12046875 -25.13546875 23.5378125 -25 22.9375 C-26.35444301 21.16559091 -26.35444301 21.16559091 -28 19.9375 C-26.02 20.2675 -24.04 20.5975 -22 20.9375 C-20.23537317 17.84940305 -20 16.70437864 -20 12.9375 C-21.32 12.6075 -22.64 12.2775 -24 11.9375 C-23.6875 10 -23.6875 10 -23 7.9375 C-19.91493912 6.90914637 -17.7305728 6.80381566 -14.5 6.8125 C-13.06140625 6.80863281 -13.06140625 6.80863281 -11.59375 6.8046875 C-9 6.9375 -9 6.9375 -6 7.9375 C-7.24976756 11.59066671 -7.67098753 12.71815836 -11 14.9375 C-5.32723489 15.23091888 -2.00932754 14.94309652 3 11.9375 C3 11.6075 3 11.2775 3 10.9375 C1.865625 10.793125 0.73125 10.64875 -0.4375 10.5 C-4 9.9375 -4 9.9375 -5 8.9375 C-5.45977011 3.65014368 -5.45977011 3.65014368 -3.75 1 C-2 -0.0625 -2 -0.0625 0 0 Z " fill="#191919" transform="translate(188,32.0625)"/>
<path d="M0 0 C0.66 0 1.32 0 2 0 C4.80035696 9.73327952 6.57623232 19.13385517 7.22802734 29.25878906 C7.57132692 33.85881935 7.92507109 37.32040881 11 41 C14 41.66666667 14 41.66666667 17 41 C18.87890434 39.62493901 18.87890434 39.62493901 20 38 C20.66 38.99 21.32 39.98 22 41 C25.06556598 41.73343428 25.06556598 41.73343428 28 42 C27.649375 41.46375 27.29875 40.9275 26.9375 40.375 C25.67754155 37.18310525 26.09393913 35.27575855 27 32 C28.125 30.125 28.125 30.125 30 29 C35.30805205 28.35003444 39.57566645 29.65163041 44.5546875 31.265625 C47.7043012 32.21151538 50.73593305 32.64521011 54 33 C53.71166992 34.88208008 53.71166992 34.88208008 53 37 C50.42355425 38.43532099 48.0254436 39.58454064 45.3125 40.6875 C44.60416016 40.99494141 43.89582031 41.30238281 43.16601562 41.61914062 C39.09206755 43.33824891 35.37726172 44.28054224 31 45 C30.67 45.66 30.34 46.32 30 47 C29.31292969 46.855625 28.62585938 46.71125 27.91796875 46.5625 C26.56638672 46.2840625 26.56638672 46.2840625 25.1875 46 C23.84751953 45.7215625 23.84751953 45.7215625 22.48046875 45.4375 C19.92739307 44.91315157 19.92739307 44.91315157 17 45 C16.67 45.33 16.34 45.66 16 46 C13.1875 46.375 13.1875 46.375 10 46 C3.2013538 40.3344615 3.52251213 28.17555508 2.4375 19.9375 C2.24897461 18.5443457 2.24897461 18.5443457 2.05664062 17.12304688 C1.29259097 11.42267644 0.61456492 5.7183803 0 0 Z " fill="#141414" transform="translate(351,6)"/>
<path d="M0 0 C1.03159626 3.09478879 0.97482862 4.52631393 0.5625 7.6875 C0.46066406 8.49574219 0.35882813 9.30398437 0.25390625 10.13671875 C0.17011719 10.75160156 0.08632812 11.36648437 0 12 C1.32 11.34 2.64 10.68 4 10 C3.835 10.680625 3.67 11.36125 3.5 12.0625 C2.69281612 16.80470528 2.31555958 20.46815716 4.3125 24.9375 C7.91878443 27.70511363 10.43488364 27.75060953 14.90625 27.5703125 C20.48738823 26.54146631 25.09385629 23.7332066 30 21 C30.99 20.67 31.98 20.34 33 20 C32.48041715 15.62065881 31.94324258 11.31196609 31 7 C31.66 7 32.32 7 33 7 C33.495 7.99 33.495 7.99 34 9 C36.87413125 9.33397787 36.87413125 9.33397787 40 9 C41.91256712 7.11922127 41.91256712 7.11922127 43 5 C43.66 5.33 44.32 5.66 45 6 C44.67 6.99 44.34 7.98 44 9 C45.65 9 47.3 9 49 9 C49.33 7.68 49.66 6.36 50 5 C50.66 5 51.32 5 52 5 C52 5.66 52 6.32 52 7 C57.82449038 7.41603503 61.26419543 6.7846847 66.3359375 3.875 C68 3 68 3 70 3 C70.495 4.98 70.495 4.98 71 7 C75.31392226 6.5206753 77.16569547 5.2542015 80 2 C80 2.99 80 3.98 80 5 C81.32 5.33 82.64 5.66 84 6 C84 4.02 84 2.04 84 0 C84.99 0.495 84.99 0.495 86 1 C86.125 4.375 86.125 4.375 86 8 C85.34 8.66 84.68 9.32 84 10 C82.865625 9.814375 81.73125 9.62875 80.5625 9.4375 C79.386875 9.293125 78.21125 9.14875 77 9 C75.37485532 10.45833358 75.37485532 10.45833358 74 12 C71.4375 11.875 71.4375 11.875 69 11 C68.01 9.515 68.01 9.515 67 8 C65.989375 8.66 64.97875 9.32 63.9375 10 C60.19947049 12.14252911 57.33417246 12.50990264 53 12 C52.34 11.34 51.68 10.68 51 10 C50.4225 10.680625 49.845 11.36125 49.25 12.0625 C48.5075 12.701875 47.765 13.34125 47 14 C44.75 13.75 44.75 13.75 43 13 C43 12.34 43 11.68 43 11 C42.34 11 41.68 11 41 11 C41 11.66 41 12.32 41 13 C38 15 38 15 35 15 C35.2475 16.2684375 35.2475 16.2684375 35.5 17.5625 C34.81970348 22.23953858 32.68102953 23.59364013 29.09375 26.4609375 C23.37419776 30.66523523 18.28456903 33.50333062 10.99609375 33.32421875 C7.66895238 32.78380244 5.54259669 31.11883057 3 29 C0.79086 25.68629 0.77518447 24.6553979 0.875 20.8125 C0.89304687 19.91144531 0.91109375 19.01039062 0.9296875 18.08203125 C0.95289063 17.39496094 0.97609375 16.70789063 1 16 C-0.32 15.67 -1.64 15.34 -3 15 C-3.3152595 9.01006953 -2.68219822 5.36439644 0 0 Z " fill="#1C1C1C" transform="translate(7,40)"/>
<path d="M0 0 C4.46428571 4.25 4.46428571 4.25 5 8 C4.34 8 3.68 8 3 8 C3.47414469 11.93812181 3.95517384 15.87537253 4.4375 19.8125 C4.57220703 20.93205078 4.70691406 22.05160156 4.84570312 23.20507812 C4.97783203 24.27822266 5.10996094 25.35136719 5.24609375 26.45703125 C5.36654053 27.44678955 5.4869873 28.43654785 5.61108398 29.45629883 C5.94403366 32.11412371 5.94403366 32.11412371 7 35 C8.299375 35.144375 9.59875 35.28875 10.9375 35.4375 C14.875 35.875 14.875 35.875 16 37 C16.125 40.5 16.125 40.5 16 44 C15 45 15 45 12.625 45.25 C10 45 10 45 8.69140625 43.49609375 C6.26401543 41.3490021 4.49158927 41.70029685 1.3125 41.8125 C0.31863281 41.83957031 -0.67523438 41.86664063 -1.69921875 41.89453125 C-2.83810547 41.94673828 -2.83810547 41.94673828 -4 42 C-4.10183594 42.7425 -4.20367187 43.485 -4.30859375 44.25 C-5.81668337 50.24827734 -11.08024773 54.62739847 -16.0625 58 C-19.49786385 59.95357248 -22.01578585 60.90550322 -26 60 C-29.09800522 57.32064413 -30.23234146 54.88948067 -30.875 50.9375 C-30.99550153 47.14170167 -30.78459239 46.10574412 -29 43 C-28.95101562 43.62648437 -28.90203125 44.25296875 -28.8515625 44.8984375 C-28.77679688 45.71570312 -28.70203125 46.53296875 -28.625 47.375 C-28.55539063 48.18710937 -28.48578125 48.99921875 -28.4140625 49.8359375 C-28.17107412 52.20334191 -28.17107412 52.20334191 -26 54 C-21.11896976 54.7969029 -18.3340217 53.87792507 -14.3125 51.25 C-11.27366299 49.0616225 -8.49076132 46.81564324 -6 44 C-7.670625 43.814375 -7.670625 43.814375 -9.375 43.625 C-13 43 -13 43 -15 41 C-15.375 38.625 -15.375 38.625 -15 36 C-13.25 33.625 -13.25 33.625 -11 32 C-8.9375 32 -8.9375 32 -7 33 C-6.566875 33.680625 -6.13375 34.36125 -5.6875 35.0625 C-5.130625 35.701875 -4.57375 36.34125 -4 37 C-1.66798159 37.07832348 0.66814992 37.08318453 3 37 C2.69088746 34.08293797 2.37784575 31.1663891 2.0625 28.25 C1.93198242 27.0125 1.93198242 27.0125 1.79882812 25.75 C1.71181641 24.95078125 1.62480469 24.1515625 1.53515625 23.328125 C1.456604 22.5949707 1.37805176 21.86181641 1.29711914 21.10644531 C1.03962185 18.9953802 1.03962185 18.9953802 0.47265625 16.95898438 C-0.29850244 13.76281838 -0.10265411 10.51792673 -0.0625 7.25 C-0.05798828 6.55261719 -0.05347656 5.85523438 -0.04882812 5.13671875 C-0.0371002 3.42444197 -0.01916653 1.71220967 0 0 Z " fill="#191919" transform="translate(125,10)"/>
<path d="M0 0 C2.4375 0.375 2.4375 0.375 5 1 C6.36952673 3.73905345 6.12621361 5.97087332 6 9 C5.67 9.66 5.34 10.32 5 11 C4.0925 10.835 3.185 10.67 2.25 10.5 C-1.11087503 9.89862854 -1.11087503 9.89862854 -5 10 C-5.495 10.495 -5.99 10.99 -6.5 11.5 C-6.995 11.995 -7.49 12.49 -8 13 C-9.32 13 -10.64 13 -12 13 C-12.165 13.845625 -12.33 14.69125 -12.5 15.5625 C-14.61007083 20.39807899 -17.85786425 22.85286127 -22 26 C-22.62132812 26.47824219 -23.24265625 26.95648438 -23.8828125 27.44921875 C-28.73725475 30.83107915 -33.55730548 31.97948459 -39.2890625 33.25 C-42.58869719 34.16286724 -44.59067537 35.59067537 -47 38 C-51.00788193 40.67192129 -54.2881417 40.8251941 -59 40 C-62.0625 37.6875 -62.0625 37.6875 -64 35 C-64 34.01 -64 33.02 -64 32 C-61 33.5 -61 33.5 -58 35 C-51.14016709 35.70963789 -47.39859375 34.21615839 -42 30 C-39.60084402 27.85619782 -39.60084402 27.85619782 -38 26 C-38 27.32 -38 28.64 -38 30 C-35.47619639 28.60933271 -32.95602681 27.21266777 -30.4375 25.8125 C-29.73302734 25.42513672 -29.02855469 25.03777344 -28.30273438 24.63867188 C-19.53495441 20.28782179 -19.53495441 20.28782179 -14 13 C-15.670625 13.061875 -15.670625 13.061875 -17.375 13.125 C-21 13 -21 13 -23 11 C-22.54545455 5.54545455 -22.54545455 5.54545455 -20 3 C-17.47442523 3.24441046 -16.2147398 3.82360659 -14.25 5.4375 C-13 7 -13 7 -13 9 C-6.51152543 7.83207458 -3.84147426 5.26267902 0 0 Z " fill="#141414" transform="translate(228,39)"/>
<path d="M0 0 C0.6703125 0.15855469 1.340625 0.31710938 2.03125 0.48046875 C6.78516927 1.31240462 11.58853291 1.28606745 16.40625 1.42578125 C20.42081694 2.06723923 22.1096505 3.21525942 25 6 C24.91740329 8.80828805 24.44224482 10.52400492 22.515625 12.59765625 C17.5519548 16.91435234 13.80828113 19.49872614 6.96484375 19.3203125 C3.79694567 18.80387583 2.16045065 17.28753598 0 15 C-1.92496891 11.9069991 -2.18544242 9.96258517 -1.6875 6.375 C-1.58824219 5.59898438 -1.48898438 4.82296875 -1.38671875 4.0234375 C-1 2 -1 2 0 0 Z " fill="#F8F8F8" transform="translate(165,56)"/>
<path d="M0 0 C3.28723489 0.68802591 4.74755875 2.11301414 6.734375 4.78515625 C8.39364845 7.87929321 8.23554138 10.15246474 7.6875 13.5625 C5.6875 17 5.6875 17 3.6875 19.5625 C5.3375 19.8925 6.9875 20.2225 8.6875 20.5625 C9.25 23.625 9.25 23.625 8.6875 27.5625 C2.62182591 34.33021971 -6.04421716 38.64350171 -15.0625 39.1875 C-19.00964004 38.99927733 -20.15756124 38.67186854 -23.5 36.3125 C-26.59088027 31.70953442 -25.69719837 25.84569089 -25.3125 20.5625 C-25.9725 20.5625 -26.6325 20.5625 -27.3125 20.5625 C-27.36649736 19.10457116 -27.40529177 17.64607288 -27.4375 16.1875 C-27.47230469 14.96933594 -27.47230469 14.96933594 -27.5078125 13.7265625 C-27.3125 11.5625 -27.3125 11.5625 -25.3125 9.5625 C-25.6425 12.2025 -25.9725 14.8425 -26.3125 17.5625 C-24.9925 16.9025 -23.6725 16.2425 -22.3125 15.5625 C-22.4775 16.2225 -22.6425 16.8825 -22.8125 17.5625 C-24.09953164 24.92550878 -24.09953164 24.92550878 -21.25 31.5625 C-17.42944056 34.16373196 -15.88968548 34.22693015 -11.3125 33.5625 C-5.0467203 31.76576259 0.4827118 29.50125864 5.6875 25.5625 C2.99419878 23.76696585 1.5414399 23.13553539 -1.5 22.4375 C-3.3871875 22.004375 -3.3871875 22.004375 -5.3125 21.5625 C-5.3125 20.2425 -5.3125 18.9225 -5.3125 17.5625 C-4.68601562 17.30855469 -4.05953125 17.05460937 -3.4140625 16.79296875 C-2.59679687 16.44878906 -1.77953125 16.10460938 -0.9375 15.75 C-0.12539063 15.41355469 0.68671875 15.07710937 1.5234375 14.73046875 C3.98897458 13.61810918 3.98897458 13.61810918 5.6875 10.5625 C2.7175 10.2325 -0.2525 9.9025 -3.3125 9.5625 C-3.9375 6.75 -3.9375 6.75 -4.3125 3.5625 C-2.3125 0.5625 -2.3125 0.5625 0 0 Z " fill="#1A1A1A" transform="translate(269.3125,21.4375)"/>
<path d="M0 0 C0.66 0 1.32 0 2 0 C4.58227355 8.68083447 5.83823845 17.36919742 6.90942383 26.34423828 C7.71549625 32.86271583 7.71549625 32.86271583 10 39 C14.455 38.505 14.455 38.505 19 38 C17.36474466 35.22006593 15.68908518 32.56471926 13.8125 29.9375 C12 27 12 27 12 23 C14.4375 23.75 14.4375 23.75 17 25 C17.625 26.875 17.625 26.875 18 29 C18.515625 29.639375 19.03125 30.27875 19.5625 30.9375 C21 33 21 33 21.5 35.4375 C20.78516027 39.1010536 18.74629681 40.58861743 16 43 C15.67 43.33 15.34 43.66 15 44 C12.125 44.3125 12.125 44.3125 9 44 C7.125 42.25 7.125 42.25 6 40 C6 38.68 6 37.36 6 36 C5.34 36 4.68 36 4 36 C3.75507813 36.60714844 3.51015625 37.21429688 3.2578125 37.83984375 C-0.05227639 43.52456162 -8.98578438 46.12671973 -15 48 C-19.14704538 48.66352726 -20.64184698 48.19234144 -24.375 46.1875 C-26.52609174 44.23912895 -26.96832815 43.19280934 -27.4453125 40.2890625 C-27.49759145 37.44359388 -27.47024495 34.80790495 -27 32 C-26.34 31.34 -25.68 30.68 -25 30 C-25.02320313 30.61488281 -25.04640625 31.22976562 -25.0703125 31.86328125 C-25.08835937 32.67152344 -25.10640625 33.47976562 -25.125 34.3125 C-25.14820313 35.11300781 -25.17140625 35.91351563 -25.1953125 36.73828125 C-25.15817322 39.28388576 -25.15817322 39.28388576 -23 42 C-15.7151347 43.40385425 -8.31837425 41.76299081 -2 38 C0.9189067 35.96659452 0.9189067 35.96659452 3 33 C3.23299634 30.00390601 3.22380436 27.73241527 2.875 24.8125 C2.813125 24.08869141 2.75125 23.36488281 2.6875 22.61914062 C2.33884899 18.68086304 2.33884899 18.68086304 1 15 C0.76827173 12.45384991 0.58105471 9.92603775 0.4375 7.375 C0.39431641 6.66859375 0.35113281 5.9621875 0.30664062 5.234375 C0.20055249 3.48981463 0.09977111 1.74493303 0 0 Z " fill="#1B1B1B" transform="translate(315,8)"/>
<path d="M0 0 C2.375 0.8125 2.375 0.8125 3.375 2.8125 C3.60576923 8.35096154 3.60576923 8.35096154 2.375 10.8125 C-0.74790635 10.32671457 -3.62080359 9.8138988 -6.625 8.8125 C-7.49125 9.8025 -7.49125 9.8025 -8.375 10.8125 C-10.625 12.8125 -10.625 12.8125 -14.625 12.8125 C-14.645625 14.00875 -14.66625 15.205 -14.6875 16.4375 C-15.13946065 20.03408826 -16.04021044 21.7183189 -18.75 24.125 C-24.74492658 28.6059329 -30.18427114 30.68058503 -37.625 29.8125 C-39.625 28.375 -39.625 28.375 -40.625 25.8125 C-41.29612799 20.1134131 -40.45967536 15.20185887 -38.625 9.8125 C-37.965 9.8125 -37.305 9.8125 -36.625 9.8125 C-36.78742188 10.36550781 -36.94984375 10.91851562 -37.1171875 11.48828125 C-37.67780849 14.0542004 -37.75775333 16.37549677 -37.75 19 C-37.75257813 19.88042969 -37.75515625 20.76085937 -37.7578125 21.66796875 C-37.86365033 23.79453191 -37.86365033 23.79453191 -36.625 24.8125 C-29.98149673 25.6606068 -25.26061407 23.21241343 -19.625 19.8125 C-18.965 19.1525 -18.305 18.4925 -17.625 17.8125 C-17.8980774 14.92089021 -17.8980774 14.92089021 -18.625 11.8125 C-18.810625 10.86375 -18.99625 9.915 -19.1875 8.9375 C-19.331875 8.23625 -19.47625 7.535 -19.625 6.8125 C-19.03332031 6.94269531 -18.44164062 7.07289062 -17.83203125 7.20703125 C-15.35896864 7.63870776 -13.13610186 7.91800848 -10.625 7.8125 C-7.66589856 5.6869845 -7.66589856 5.6869845 -5.625 2.8125 C-3.19256757 -0.22804054 -3.19256757 -0.22804054 0 0 Z " fill="#282828" transform="translate(445.625,39.1875)"/>
<path d="M0 0 C0.33 0.66 0.66 1.32 1 2 C1.66 2.33 2.32 2.66 3 3 C1.68 3.99 0.36 4.98 -1 6 C0.62808594 6.16435547 0.62808594 6.16435547 2.2890625 6.33203125 C3.73444152 6.49158608 5.17975051 6.65177611 6.625 6.8125 C7.69427734 6.91788086 7.69427734 6.91788086 8.78515625 7.02539062 C13.41913863 7.55681062 16.89147841 8.63468394 21 11 C21 13.64 21 16.28 21 19 C20.38125 18.195625 19.7625 17.39125 19.125 16.5625 C17.25835959 13.96125481 17.25835959 13.96125481 15 13 C12.55944138 12.81804119 10.13135402 12.67199584 7.6875 12.5625 C3.00461303 12.34693126 -0.74679692 12.03199451 -5 10 C-5.19601608 11.74906659 -5.38147403 13.49931846 -5.5625 15.25 C-5.66691406 16.22453125 -5.77132812 17.1990625 -5.87890625 18.203125 C-6.13723866 20.93439013 -6.13723866 20.93439013 -5.40234375 23.234375 C-5.26957031 23.81703125 -5.13679687 24.3996875 -5 25 C-5.66 25.66 -6.32 26.32 -7 27 C-8.02319033 23.93042902 -8.13371939 21.77559677 -8.125 18.5625 C-8.12757813 17.61503906 -8.13015625 16.66757812 -8.1328125 15.69140625 C-8 13 -8 13 -7.40234375 10.76171875 C-7.20318359 9.88966797 -7.20318359 9.88966797 -7 9 C-8.35444301 7.22809091 -8.35444301 7.22809091 -10 6 C-7.03 6.495 -7.03 6.495 -4 7 C-3.71125 6.401875 -3.4225 5.80375 -3.125 5.1875 C-2 3 -2 3 0 0 Z " fill="#1C1C1C" transform="translate(170,46)"/>
<path d="M0 0 C0.66 0 1.32 0 2 0 C4.80035696 9.73327952 6.57623232 19.13385517 7.22802734 29.25878906 C7.57132692 33.85881935 7.92507109 37.32040881 11 41 C14 41.66666667 14 41.66666667 17 41 C18.87890434 39.62493901 18.87890434 39.62493901 20 38 C20.33 38.99 20.66 39.98 21 41 C19 44 19 44 16 46 C13.0625 46.4375 13.0625 46.4375 10 46 C3.2013538 40.3344615 3.52251213 28.17555508 2.4375 19.9375 C2.24897461 18.5443457 2.24897461 18.5443457 2.05664062 17.12304688 C1.29259097 11.42267644 0.61456492 5.7183803 0 0 Z " fill="#1B1B1B" transform="translate(351,6)"/>
<path d="M0 0 C0.66 0 1.32 0 2 0 C1.83757812 0.55300781 1.67515625 1.10601562 1.5078125 1.67578125 C0.94719151 4.2417004 0.86724667 6.56299677 0.875 9.1875 C0.87242187 10.06792969 0.86984375 10.94835938 0.8671875 11.85546875 C0.76134967 13.98203191 0.76134967 13.98203191 2 15 C8.53646 15.8344417 13.56605429 13.60996394 19 10 C20.69314404 8.06907675 20.69314404 8.06907675 22 6 C22.66 5.01 23.32 4.02 24 3 C23.88148629 9.87379514 23.88148629 9.87379514 21.62109375 12.76171875 C16.71738061 17.11691812 11.39653522 20.0608225 4.75 20.4375 C1 20 1 20 -1 18.5625 C-3.421281 12.35796743 -2.08120288 6.11353346 0 0 Z " fill="#252525" transform="translate(407,49)"/>
<path d="M0 0 C0.66 0 1.32 0 2 0 C5.12978819 5.25804416 5.12978819 5.25804416 4.53125 8.6796875 C3.8688651 12.81959314 4.36973663 16.37554789 4.9375 20.5 C5.93090983 28.39362474 6.23044571 36.0368203 6 44 C5.01 44.495 5.01 44.495 4 45 C3.95101562 44.1028125 3.90203125 43.205625 3.8515625 42.28125 C3.40259078 34.78806683 2.72571498 27.38973507 1.73535156 19.94921875 C0.87000159 13.31378046 0.39655598 6.67883758 0 0 Z " fill="#262626" transform="translate(146,8)"/>
<path d="M0 0 C2.76890402 1.29792376 3.61647491 2.17044981 5 4.9375 C5.40062633 7.98009456 5.59469428 10.9173859 5 13.9375 C4.01 14.5975 3.02 15.2575 2 15.9375 C2.33 14.2875 2.66 12.6375 3 10.9375 C1.865625 10.793125 0.73125 10.64875 -0.4375 10.5 C-4 9.9375 -4 9.9375 -5 8.9375 C-5.45977011 3.65014368 -5.45977011 3.65014368 -3.75 1 C-2 -0.0625 -2 -0.0625 0 0 Z " fill="#121212" transform="translate(188,32.0625)"/>
<path d="M0 0 C1.65 0.33 3.3 0.66 5 1 C6.36952673 3.73905345 6.12621361 5.97087332 6 9 C5.67 9.66 5.34 10.32 5 11 C4.0925 10.835 3.185 10.67 2.25 10.5 C-1.11087503 9.89862854 -1.11087503 9.89862854 -5 10 C-5.66 9.34 -6.32 8.68 -7 8 C-4.69 5.36 -2.38 2.72 0 0 Z " fill="#151515" transform="translate(228,39)"/>
<path d="M0 0 C8.6764639 0.98862257 8.6764639 0.98862257 12.79296875 3.046875 C9.73339105 6.1064527 5.95634193 7.07063577 1.79296875 8.046875 C-1.26953125 7.734375 -1.26953125 7.734375 -3.20703125 7.046875 C-3.83203125 4.671875 -3.83203125 4.671875 -4.20703125 2.046875 C-2.20703125 0.046875 -2.20703125 0.046875 0 0 Z " fill="#F3F3F3" transform="translate(383.20703125,38.953125)"/>
<path d="M0 0 C-0.625 1.9375 -0.625 1.9375 -2 4 C-5.0625 4.625 -5.0625 4.625 -8 5 C-8.33 5.66 -8.66 6.32 -9 7 C-12.3 6.34 -15.6 5.68 -19 5 C-19 3.68 -19 2.36 -19 1 C-17.73542969 1.01740234 -17.73542969 1.01740234 -16.4453125 1.03515625 C-15.34960938 1.04417969 -14.25390625 1.05320313 -13.125 1.0625 C-11.48917969 1.07990234 -11.48917969 1.07990234 -9.8203125 1.09765625 C-6.32735734 0.97670905 -3.62568994 -0.09541289 0 0 Z " fill="#0D0D0D" transform="translate(390,46)"/>
<path d="M0 0 C0.33 0 0.66 0 1 0 C1.33 1.65 1.66 3.3 2 5 C4.31 5.33 6.62 5.66 9 6 C9 6.99 9 7.98 9 9 C3.99067246 12.00559652 0.67276511 12.29341888 -5 12 C-5.33 11.34 -5.66 10.68 -6 10 C-5.38125 9.835 -4.7625 9.67 -4.125 9.5 C-0.72243051 7.09818625 -0.77387974 3.99837866 0 0 Z " fill="#E8E8E8" transform="translate(182,36)"/>
<path d="M0 0 C-0.33 0.99 -0.66 1.98 -1 3 C0.98 3 2.96 3 5 3 C5.33 4.65 5.66 6.3 6 8 C4.22868439 7.69024532 2.45796222 7.37709575 0.6875 7.0625 C-0.29863281 6.88847656 -1.28476562 6.71445312 -2.30078125 6.53515625 C-5 6 -5 6 -8 5 C-8 3.68 -8 2.36 -8 1 C-3.375 -1.125 -3.375 -1.125 0 0 Z " fill="#141414" transform="translate(272,38)"/>
<path d="M0 0 C1.03159626 3.09478879 0.97482862 4.52631393 0.5625 7.6875 C0.46066406 8.49574219 0.35882813 9.30398437 0.25390625 10.13671875 C0.17011719 10.75160156 0.08632812 11.36648437 0 12 C1.32 11.34 2.64 10.68 4 10 C3.835 10.680625 3.67 11.36125 3.5 12.0625 C2.69018868 16.82014153 2.26337725 20.55744711 4.5 24.9375 C4.995 25.618125 5.49 26.29875 6 27 C4.68 27.33 3.36 27.66 2 28 C0.73762269 25.47524538 0.90143596 23.68799534 0.9375 20.875 C0.94652344 19.96492188 0.95554687 19.05484375 0.96484375 18.1171875 C0.97644531 17.41851562 0.98804688 16.71984375 1 16 C-0.32 15.67 -1.64 15.34 -3 15 C-3.3152595 9.01006953 -2.68219822 5.36439644 0 0 Z " fill="#343434" transform="translate(7,40)"/>
<path d="M0 0 C0.66 0 1.32 0 2 0 C1.67 1.65 1.34 3.3 1 5 C0.34 5 -0.32 5 -1 5 C-1 5.66 -1 6.32 -1 7 C0.65 7.33 2.3 7.66 4 8 C3.125 12.75 3.125 12.75 2 15 C-1.0625 15.625 -1.0625 15.625 -4 16 C-3.01 15.01 -2.02 14.02 -1 13 C-1.66 12.67 -2.32 12.34 -3 12 C-3.29162929 7.04230204 -3.12940055 3.97193147 0 0 Z " fill="#090909" transform="translate(306,25)"/>
<path d="M0 0 C0.33 1.32 0.66 2.64 1 4 C2.11375 3.319375 3.2275 2.63875 4.375 1.9375 C6.2734375 0.77734375 6.2734375 0.77734375 8 0 C8.66 0.33 9.32 0.66 10 1 C9.34 1.66 8.68 2.32 8 3 C8.33 3.66 8.66 4.32 9 5 C8.16855469 5.18175781 7.33710938 5.36351563 6.48046875 5.55078125 C5.39378906 5.80214844 4.30710938 6.05351563 3.1875 6.3125 C2.10855469 6.55613281 1.02960938 6.79976563 -0.08203125 7.05078125 C-3.00259065 8.00084274 -4.0204827 8.77070133 -6 11 C-6.66 11 -7.32 11 -8 11 C-8.33 10.01 -8.66 9.02 -9 8 C-8.071875 7.4225 -7.14375 6.845 -6.1875 6.25 C-3.40184158 4.28365288 -1.81261304 2.81962028 0 0 Z " fill="#1D1D1D" transform="translate(189,65)"/>
<path d="M0 0 C0.66 0 1.32 0 2 0 C2.33 0.66 2.66 1.32 3 2 C4.89533342 2.46523063 4.89533342 2.46523063 7.0625 2.625 C8.361875 2.74875 9.66125 2.8725 11 3 C10 6 10 6 7 8 C6.01 8 5.02 8 4 8 C4 9.98 4 11.96 4 14 C1.21536982 11.21536982 1.45734346 8.85475206 1 5 C0.68033861 3.33065717 0.35268934 1.6626783 0 0 Z " fill="#272727" transform="translate(38,47)"/>
<path d="M0 0 C0.66 0.99 1.32 1.98 2 3 C0 6 0 6 -3 8 C-8.22279793 8.54404145 -8.22279793 8.54404145 -10.875 6.6875 C-12 5 -12 5 -12 2 C-8.7 2.33 -5.4 2.66 -2 3 C-1.34 2.01 -0.68 1.02 0 0 Z " fill="#181818" transform="translate(370,44)"/>
<path d="M0 0 C0.33 0 0.66 0 1 0 C1.05534912 0.58491211 1.11069824 1.16982422 1.16772461 1.77246094 C1.42117265 4.43195108 1.67928825 7.09096832 1.9375 9.75 C2.02451172 10.67039062 2.11152344 11.59078125 2.20117188 12.5390625 C2.28818359 13.42851563 2.37519531 14.31796875 2.46484375 15.234375 C2.543396 16.05131836 2.62194824 16.86826172 2.70288086 17.70996094 C2.98329012 19.87120901 3.42444505 21.90017313 4 24 C3.01 24.33 2.02 24.66 1 25 C-1.00594372 16.42100854 -1.78388925 8.69646008 0 0 Z " fill="#222222" transform="translate(356,22)"/>
<path d="M0 0 C4.46428571 4.25 4.46428571 4.25 5 8 C4.34 8 3.68 8 3 8 C3.04125 9.0725 3.0825 10.145 3.125 11.25 C3.0114175 14.65747485 2.78726636 16.20739631 1 19 C-0.26582219 15.13276369 -0.1118765 11.26848738 -0.0625 7.25 C-0.05798828 6.55261719 -0.05347656 5.85523438 -0.04882812 5.13671875 C-0.0371002 3.42444197 -0.01916653 1.71220967 0 0 Z " fill="#636363" transform="translate(125,10)"/>
<path d="M0 0 C2.4375 0.75 2.4375 0.75 5 2 C5.625 3.875 5.625 3.875 6 6 C6.7734375 6.9590625 6.7734375 6.9590625 7.5625 7.9375 C9.3264151 10.46833471 9.25163514 11.98037834 9 15 C5.41313863 11.61240871 2.46439255 8.28986852 0 4 C0 2.68 0 1.36 0 0 Z " fill="#252525" transform="translate(327,31)"/>
<path d="M0 0 C3.63 0.66 7.26 1.32 11 2 C10.34 3.32 9.68 4.64 9 6 C7.35 6 5.7 6 4 6 C3.67 6.99 3.34 7.98 3 9 C0.70620251 5.55930376 0 4.27709699 0 0 Z " fill="#161616" transform="translate(426,46)"/>
<path d="M0 0 C2.95258818 2.95258818 2.7610796 6.39507627 3.1875 10.375 C3.28224609 11.14328125 3.37699219 11.9115625 3.47460938 12.703125 C3.90012555 16.45806165 4.08428234 19.33382476 3 23 C2.34 22.67 1.68 22.34 1 22 C-0.01161932 17.00552723 -0.10747808 12.14502326 -0.0625 7.0625 C-0.05798828 6.37865234 -0.05347656 5.69480469 -0.04882812 4.99023438 C-0.0371956 3.32678396 -0.01926694 1.6633795 0 0 Z " fill="#2D2D2D" transform="translate(127,25)"/>
<path d="M0 0 C2 3 2 3 2 6 C0.5625 7.5625 0.5625 7.5625 -1 9 C-1.33 9.66 -1.66 10.32 -2 11 C0.31 11 2.62 11 5 11 C4.67 11.66 4.34 12.32 4 13 C1.69 13 -0.62 13 -3 13 C-3.08086147 11.20906809 -3.13912702 9.41710372 -3.1875 7.625 C-3.22230469 6.62726563 -3.25710937 5.62953125 -3.29296875 4.6015625 C-3.14794922 3.31378906 -3.14794922 3.31378906 -3 2 C-2.01 1.34 -1.02 0.68 0 0 Z " fill="#4C4C4C" transform="translate(157,64)"/>
<path d="M0 0 C2 0.875 2 0.875 3.25 3.4375 C3.4975 4.241875 3.745 5.04625 4 5.875 C0.30581799 7.106394 -2.2056261 6.51932764 -6 5.875 C-3.80564263 -0.23785266 -3.80564263 -0.23785266 0 0 Z " fill="#F0F0F0" transform="translate(161,69.125)"/>
<path d="M0 0 C1.32 0.33 2.64 0.66 4 1 C4 2.32 4 3.64 4 5 C2.35 4.67 0.7 4.34 -1 4 C-1 4.66 -1 5.32 -1 6 C-3.97 5.505 -3.97 5.505 -7 5 C-6.67 3.68 -6.34 2.36 -6 1 C-4.35 1.33 -2.7 1.66 -1 2 C-0.67 1.34 -0.34 0.68 0 0 Z " fill="#333333" transform="translate(267,62)"/>
<path d="M0 0 C0.66 0.33 1.32 0.66 2 1 C0.95724749 4.2441189 -0.61240491 5.60194664 -3.4375 7.3125 C-7 9 -7 9 -10 8 C-6.91367389 4.7373124 -4.06516496 1.97764782 0 0 Z " fill="#111111" transform="translate(206,60)"/>
<path d="M0 0 C-0.37792797 2.67456717 -0.79766916 3.80611814 -2.77734375 5.703125 C-3.49019531 6.21359375 -4.20304687 6.7240625 -4.9375 7.25 C-5.64777344 7.77078125 -6.35804688 8.2915625 -7.08984375 8.828125 C-9 10 -9 10 -11 10 C-11 8.68 -11 7.36 -11 6 C-9.1015625 4.296875 -9.1015625 4.296875 -6.625 2.75 C-5.81289063 2.22921875 -5.00078125 1.7084375 -4.1640625 1.171875 C-2 0 -2 0 0 0 Z " fill="#1D1D1D" transform="translate(278,46)"/>
<path d="M0 0 C0.33 1.32 0.66 2.64 1 4 C0.32453125 4.09796875 -0.3509375 4.1959375 -1.046875 4.296875 C-7.95967405 5.37079086 -7.95967405 5.37079086 -13 10 C-13.66 9.67 -14.32 9.34 -15 9 C-10.24477955 4.38064299 -6.59346009 1.23627377 0 0 Z " fill="#5B5B5B" transform="translate(59,56)"/>
<path d="M0 0 C-1 3 -1 3 -3 4 C-1.02 4 0.96 4 3 4 C0.22719294 7.08089673 -2.06326356 8.68775452 -6 10 C-5.67 9.01 -5.34 8.02 -5 7 C-5.20625 6.34 -5.4125 5.68 -5.625 5 C-5.74875 4.34 -5.8725 3.68 -6 3 C-4.04862098 0.26806937 -3.44686768 0 0 0 Z " fill="#292929" transform="translate(111,27)"/>
<path d="M0 0 C0.66 0 1.32 0 2 0 C2 0.99 2 1.98 2 3 C1.01 3.495 1.01 3.495 0 4 C-0.72693904 5.97888961 -1.39816251 7.97954558 -2 10 C-4.5 7.75 -4.5 7.75 -7 5 C-7 3.68 -7 2.36 -7 1 C-4.525 1.99 -4.525 1.99 -2 3 C-1.34 2.01 -0.68 1.02 0 0 Z " fill="#3A3A3A" transform="translate(24,38)"/>
<path d="M0 0 C1.9375 0.625 1.9375 0.625 4 2 C5.26331584 6.27583824 4.86353971 9.68230144 4 14 C4 14.99 4 15.98 4 17 C3.01 16.67 2.02 16.34 1 16 C1.09539063 15.18015625 1.19078125 14.3603125 1.2890625 13.515625 C1.39992187 12.43796875 1.51078125 11.3603125 1.625 10.25 C1.74101563 9.18265625 1.85703125 8.1153125 1.9765625 7.015625 C2.00029475 3.96207601 1.61420985 2.53837579 0 0 Z " fill="#505050" transform="translate(51,20)"/>
<path d="M0 0 C0.56203125 0.14308594 1.1240625 0.28617188 1.703125 0.43359375 C4.04545453 1.01120902 6.39417659 1.54283307 8.75 2.0625 C9.54921875 2.23910156 10.3484375 2.41570313 11.171875 2.59765625 C11.77515625 2.73042969 12.3784375 2.86320312 13 3 C13 3.66 13 4.32 13 5 C7.72 4.67 2.44 4.34 -3 4 C-2.01 2.68 -1.02 1.36 0 0 Z " fill="#EBEBEB" transform="translate(171,49)"/>
<path d="M0 0 C1.32 0.66 2.64 1.32 4 2 C3.67 2.99 3.34 3.98 3 5 C2.01 5.33 1.02 5.66 0 6 C0 8.97 0 11.94 0 15 C-0.33 15 -0.66 15 -1 15 C-1.22134176 12.87631556 -1.42670007 10.75095976 -1.625 8.625 C-1.74101562 7.44164062 -1.85703125 6.25828125 -1.9765625 5.0390625 C-1.98429688 4.03617188 -1.99203125 3.03328125 -2 2 C-1.34 1.34 -0.68 0.68 0 0 Z " fill="#464646" transform="translate(135,15)"/>
<path d="M0 0 C0.33 0.66 0.66 1.32 1 2 C-0.92333011 6.06036357 -3.40069448 8.37347975 -7 11 C-7.33 9.68 -7.66 8.36 -8 7 C-7.05125 6.401875 -6.1025 5.80375 -5.125 5.1875 C-1.86035803 3.18437474 -1.86035803 3.18437474 0 0 Z " fill="#252525" transform="translate(215,52)"/>
<path d="M0 0 C0.33 0.66 0.66 1.32 1 2 C1.66 2.33 2.32 2.66 3 3 C1.68 3.99 0.36 4.98 -1 6 C2.96 6.33 6.92 6.66 11 7 C11 7.33 11 7.66 11 8 C6.38 8 1.76 8 -3 8 C-3.33 7.01 -3.66 6.02 -4 5 C-2.0625 2.3125 -2.0625 2.3125 0 0 Z " fill="#484848" transform="translate(170,46)"/>
<path d="M0 0 C0.66 0 1.32 0 2 0 C2.66 2.97 3.32 5.94 4 9 C3.67 9 3.34 9 3 9 C2.67 10.98 2.34 12.96 2 15 C1.67 15 1.34 15 1 15 C0.67 10.05 0.34 5.1 0 0 Z " fill="#3A3A3A" transform="translate(315,8)"/>
<path d="M0 0 C2.75 0.25 2.75 0.25 5 1 C4.67 2.98 4.34 4.96 4 7 C3.67 5.68 3.34 4.36 3 3 C2.34 3 1.68 3 1 3 C0.34 4.32 -0.32 5.64 -1 7 C-1.99 6.01 -2.98 5.02 -4 4 C-2.3125 1.9375 -2.3125 1.9375 0 0 Z " fill="#323232" transform="translate(318,41)"/>
<path d="M0 0 C1.21154514 3.63463542 0.710358 6.02475476 0.15625 9.74609375 C-0.12562174 12.00939787 -0.12562174 12.00939787 0.59375 14.16015625 C0.7278125 14.76730469 0.861875 15.37445313 1 16 C0.34 16.66 -0.32 17.32 -1 18 C-2.01702117 14.9489365 -2.16582083 12.75800939 -2.1875 9.5625 C-2.20167969 8.61503906 -2.21585938 7.66757812 -2.23046875 6.69140625 C-1.99614518 3.95498356 -1.39701383 2.33571877 0 0 Z " fill="#2D2D2D" transform="translate(164,55)"/>
<path d="M0 0 C0.33 0 0.66 0 1 0 C0.63076923 7.38461538 0.63076923 7.38461538 -2.5625 10.5 C-3.366875 10.995 -4.17125 11.49 -5 12 C-5.33 11.34 -5.66 10.68 -6 10 C-5.65066406 9.52949219 -5.30132812 9.05898438 -4.94140625 8.57421875 C-4.48636719 7.95160156 -4.03132813 7.32898437 -3.5625 6.6875 C-2.88380859 5.76517578 -2.88380859 5.76517578 -2.19140625 4.82421875 C-0.82663692 2.90322899 -0.82663692 2.90322899 0 0 Z " fill="#383838" transform="translate(430,52)"/>
<path d="M0 0 C0.33 0 0.66 0 1 0 C1.04241723 2.33294775 1.04092937 4.66702567 1 7 C0 8 0 8 -2.5625 8.0625 C-3.366875 8.041875 -4.17125 8.02125 -5 8 C-3.68 7.67 -2.36 7.34 -1 7 C-1 6.34 -1 5.68 -1 5 C-2.65 4.67 -4.3 4.34 -6 4 C-6 3.34 -6 2.68 -6 2 C-3.03 2.495 -3.03 2.495 0 3 C0 2.01 0 1.02 0 0 Z " fill="#545454" transform="translate(140,47)"/>
<path d="M0 0 C0.98120464 3.05263664 0.98120464 4.94736336 0 8 C1.32 7.34 2.64 6.68 4 6 C3.67 7.65 3.34 9.3 3 11 C1.68 11 0.36 11 -1 11 C-1.0270043 9.54176788 -1.04639787 8.08339325 -1.0625 6.625 C-1.07410156 5.81289063 -1.08570313 5.00078125 -1.09765625 4.1640625 C-1 2 -1 2 0 0 Z " fill="#444444" transform="translate(243,31)"/>
<path d="M0 0 C1.32 1.32 2.64 2.64 4 4 C3.1654738 6.50357861 2.20628008 8.66785852 1 11 C-0.17571451 7.32589215 -0.07366746 3.83070817 0 0 Z " fill="#191919" transform="translate(125,10)"/>
<path d="M0 0 C2.475 0.99 2.475 0.99 5 2 C4.67 3.32 4.34 4.64 4 6 C1.525 5.01 1.525 5.01 -1 4 C-0.67 2.68 -0.34 1.36 0 0 Z " fill="#2B2B2B" transform="translate(367,57)"/>
<path d="M0 0 C0.99 0.33 1.98 0.66 3 1 C2.6596875 1.86625 2.6596875 1.86625 2.3125 2.75 C1.73494807 5.12172477 1.73494807 5.12172477 3.4375 7.25 C3.953125 7.8275 4.46875 8.405 5 9 C3.68 9 2.36 9 1 9 C-0.61949011 6.42786866 -1.04408751 5.32330841 -0.625 2.25 C-0.41875 1.5075 -0.2125 0.765 0 0 Z " fill="#373737" transform="translate(378,39)"/>
<path d="M0 0 C0.66 0 1.32 0 2 0 C2.33 2.64 2.66 5.28 3 8 C2.01 8.33 1.02 8.66 0 9 C0 6.03 0 3.06 0 0 Z " fill="#090909" transform="translate(319,34)"/>
<path d="M0 0 C0.66 0 1.32 0 2 0 C1.67 1.65 1.34 3.3 1 5 C0.34 5 -0.32 5 -1 5 C-1 5.66 -1 6.32 -1 7 C0.32 7.33 1.64 7.66 3 8 C1.35 8 -0.3 8 -2 8 C-3 5 -3 5 -1.6875 2.3125 C-1.130625 1.549375 -0.57375 0.78625 0 0 Z " fill="#4C4C4C" transform="translate(306,25)"/>
<path d="M0 0 C1.231394 2.46278801 1.07159196 4.2795055 1 7 C0.01 7 -0.98 7 -2 7 C-2.33 7.99 -2.66 8.98 -3 10 C-3.29296875 3.9453125 -3.29296875 3.9453125 -3 2 C-2.01 1.34 -1.02 0.68 0 0 Z " fill="#B8B8B8" transform="translate(360,22)"/>
<path d="M0 0 C1.32 0.66 2.64 1.32 4 2 C4 3.32 4 4.64 4 6 C2.0625 5.6875 2.0625 5.6875 0 5 C-0.33 4.01 -0.66 3.02 -1 2 C-0.67 1.34 -0.34 0.68 0 0 Z " fill="#212121" transform="translate(179,19)"/>
<path d="M0 0 C1.32 0.66 2.64 1.32 4 2 C4 1.34 4 0.68 4 0 C4.99 0 5.98 0 7 0 C7 0.66 7 1.32 7 2 C6.01 2.495 6.01 2.495 5 3 C4.67 3.99 4.34 4.98 4 6 C3.34 6 2.68 6 2 6 C2 5.01 2 4.02 2 3 C1.01 2.67 0.02 2.34 -1 2 C-0.67 1.34 -0.34 0.68 0 0 Z " fill="#505050" transform="translate(132,7)"/>
<path d="M0 0 C2.1519437 3.22791555 2.20086443 4.28400809 2 8 C0.68 8.33 -0.64 8.66 -2 9 C-1.67 7.68 -1.34 6.36 -1 5 C-1 5.66 -1 6.32 -1 7 C-0.34 7 0.32 7 1 7 C0.34 6.01 -0.32 5.02 -1 4 C-0.625 1.8125 -0.625 1.8125 0 0 Z " fill="#3B3B3B" transform="translate(185,4)"/>
<path d="M0 0 C0.99 0.33 1.98 0.66 3 1 C1.515 2.485 1.515 2.485 0 4 C0.99 4.33 1.98 4.66 3 5 C-0.75 6.125 -0.75 6.125 -3 5 C-2.625 3.0625 -2.625 3.0625 -2 1 C-1.34 0.67 -0.68 0.34 0 0 Z " fill="#5A5A5A" transform="translate(186,32)"/>
<path d="M0 0 C0.99 0 1.98 0 3 0 C2.125 5.75 2.125 5.75 1 8 C0.34 7.67 -0.32 7.34 -1 7 C-0.34 5.68 0.32 4.36 1 3 C0.34 3 -0.32 3 -1 3 C-0.67 2.01 -0.34 1.02 0 0 Z " fill="#575757" transform="translate(114,66)"/>
<path d="M0 0 C1.98 0.495 1.98 0.495 4 1 C4 2.32 4 3.64 4 5 C2.35 4.67 0.7 4.34 -1 4 C-0.67 2.68 -0.34 1.36 0 0 Z " fill="#1C1C1C" transform="translate(261,63)"/>
<path d="M0 0 C-0.25 1.875 -0.25 1.875 -1 4 C-3.0625 5.25 -3.0625 5.25 -5 6 C-5.33 5.01 -5.66 4.02 -6 3 C-2.25 0 -2.25 0 0 0 Z " fill="#2B2B2B" transform="translate(278,46)"/>
<path d="M0 0 C0.66 0.33 1.32 0.66 2 1 C2 3.31 2 5.62 2 8 C1.01 8.495 1.01 8.495 0 9 C0 8.34 0 7.68 0 7 C-0.99 6.67 -1.98 6.34 -3 6 C-2.01 6 -1.02 6 0 6 C0 4.02 0 2.04 0 0 Z " fill="#2E2E2E" transform="translate(91,40)"/>
<path d="M0 0 C1.65 0 3.3 0 5 0 C5.33 0.66 5.66 1.32 6 2 C5.67 2.66 5.34 3.32 5 4 C1.9375 4.625 1.9375 4.625 -1 5 C-0.01 4.01 0.98 3.02 2 2 C1.34 1.34 0.68 0.68 0 0 Z " fill="#313131" transform="translate(303,36)"/>
<path d="M0 0 C1.98 0.99 1.98 0.99 4 2 C4.1953125 8.0546875 4.1953125 8.0546875 4 10 C3.34 10.66 2.68 11.32 2 12 C2.04125 10.7625 2.0825 9.525 2.125 8.25 C2.13658291 4.98362038 1.8568702 2.7853053 0 0 Z " fill="#323232" transform="translate(415,26)"/>
<path d="M0 0 C0.77897741 2.33693224 1.40410569 4.61642277 2 7 C2.33 7.99 2.66 8.98 3 10 C1.68 10 0.36 10 -1 10 C-1.125 2.25 -1.125 2.25 0 0 Z " fill="#333333" transform="translate(302,10)"/>
<path d="M0 0 C1.98 0.99 1.98 0.99 4 2 C4 3.32 4 4.64 4 6 C2.68 5.67 1.36 5.34 0 5 C0 3.35 0 1.7 0 0 Z " fill="#131313" transform="translate(330,57)"/>
<path d="M0 0 C2.97 0.495 2.97 0.495 6 1 C6 1.99 6 2.98 6 4 C4.35 3.67 2.7 3.34 1 3 C0.67 2.01 0.34 1.02 0 0 Z " fill="#070707" transform="translate(85,46)"/>
<path d="M0 0 C0.66 0.33 1.32 0.66 2 1 C2 1.66 2 2.32 2 3 C2.31478446 4.33783393 2.64587656 5.67203709 3 7 C1.02 6.01 -0.96 5.02 -3 4 C-2.01 2.68 -1.02 1.36 0 0 Z " fill="#5D5D5D" transform="translate(228,39)"/>
<path d="M0 0 C1.42944945 2.35438733 2.08661261 3.48032433 1.625 6.25 C1.41875 6.8275 1.2125 7.405 1 8 C0.34 8 -0.32 8 -1 8 C-1.04241723 5.66705225 -1.04092937 3.33297433 -1 1 C-0.67 0.67 -0.34 0.34 0 0 Z " fill="#A2A2A2" transform="translate(335,27)"/>
<path d="M0 0 C1.98 0.495 1.98 0.495 4 1 C3.67 2.32 3.34 3.64 3 5 C1.68 4.34 0.36 3.68 -1 3 C-0.67 2.01 -0.34 1.02 0 0 Z " fill="#1D1D1D" transform="translate(185,19)"/>
<path d="M0 0 C1.65 0 3.3 0 5 0 C4.6875 1.875 4.6875 1.875 4 4 C3.01 4.66 2.02 5.32 1 6 C1.33 5.01 1.66 4.02 2 3 C1.34 2.67 0.68 2.34 0 2 C0 1.34 0 0.68 0 0 Z " fill="#5A5A5A" transform="translate(391,52)"/>
<path d="M0 0 C1.76462683 3.08809695 2 4.23312136 2 8 C1.01 7.67 0.02 7.34 -1 7 C-0.67 4.69 -0.34 2.38 0 0 Z " fill="#9D9D9D" transform="translate(296,28)"/>
<path d="M0 0 C0.33 0.99 0.66 1.98 1 3 C1.99 3.33 2.98 3.66 4 4 C1.69 4.33 -0.62 4.66 -3 5 C-3 4.01 -3 3.02 -3 2 C-2.34 2 -1.68 2 -1 2 C-0.67 1.34 -0.34 0.68 0 0 Z " fill="#D6D6D6" transform="translate(111,27)"/>
</svg>
